<svg xmlns="http://www.w3.org/2000/svg" width="512" height="512"><g fill="#088C44"><path d="M383.854 231.529l-8.617-2.585-14.997-4.495-14.441-4.28-1.102 3.815 1.573.465 14.996 4.495 8.618 2.585c13.469 3.98 21.143 18.25 17.174 31.795l-6.999 23.85c-2.05 7.011-6.882 12.386-12.903 15.445l6.121 1.82c.586.18 1.181.21 1.767.34 8.761-1.93 16.281-8.355 18.985-17.605l7-23.85c3.968-13.545-3.707-27.815-17.175-31.795zM357.024 405.024a159.47 159.47 0 0 1-12.903-17.535c-3.935-6.185-7.903-13.21-11.901-21.069-4.003-7.87-7.441-15.53-10.309-22.99-.66-1.721-2.009-5.271-2.59-6.9l-.168-.439-.011-.136c-.595-1.604-.962-3.325-.962-5.135 0-1.18.168-2.31.432-3.4l-.016-.189 5.656-19.67c.01.01.034.01.049.02a14.715 14.715 0 0 1 7.104-8.24l-3.046-.909c-1.305-.386-2.947-.681-4.376-.681-.258 0-.506.05-.764.065l-13.762 47.42c-.109.355-.218.695-.327 1.045a243.939 243.939 0 0 0 9.118 20.141c3.998 7.859 7.967 14.885 11.901 21.069a159.47 159.47 0 0 0 12.903 17.535c6.003 6.455 13.707 12.065 23.113 16.835 9.4 4.775 17.309 7.16 23.708 7.16 2.51 0 4.932-.31 7.293-.83-5.006-1.035-10.646-3.085-17.031-6.33-9.404-4.771-17.108-10.382-23.111-16.837zM211.569 405.63c0-5.11 1.501-13.88 4.502-26.32 2.687-11.13 6.692-25.365 12.003-42.65-1.27-.58-2.502-1.095-3.833-1.77-2.894-1.47-5.568-3.04-8.141-4.67-.032.1-.064.189-.094.29-.561 1.8-1.094 3.529-1.63 5.27l-1.406 4.6c-4.745 15.605-8.376 28.61-10.869 38.931-3.001 12.44-4.502 21.21-4.502 26.32 0 12.37 5.715 16.215 16.416 18.55 3.42.75 8.426 1.05 14.133.03l-.164-.03c-10.699-2.336-16.415-6.181-16.415-18.551zM285.92 175.809v-.035c-.077.221-.161.439-.24.66l.24-.625zM261.755 210.364a126.325 126.325 0 0 1-4.656 3.775c-5.323 13.765-10.346 27.205-15.208 40.471 3.319 2.779 6.98 5.494 10.999 8.14 5.968-16.476 12.214-33.255 18.906-50.51l5.397-13.71 7.202-18.751a72.435 72.435 0 0 1-1.632 3.666c-4.935 10.284-11.941 19.254-21.008 26.919zM285.68 176.434l-1.284 3.344a75.703 75.703 0 0 0 1.284-3.344z"/></g></svg>