<svg xmlns="http://www.w3.org/2000/svg" width="512" height="512"><g fill="#036D8B"><path d="M217.163 144.554l-8.617-2.583-15-4.495-14.441-4.28-1.099 3.815 1.57.465 15 4.495 8.617 2.583c13.469 3.979 21.141 18.255 17.177 31.795l-7.002 23.85c-2.051 7.015-6.884 12.39-12.901 15.445l6.119 1.825c.588.175 1.178.205 1.769.335 8.759-1.925 16.277-8.355 18.983-17.605l7.002-23.85c3.964-13.54-3.708-27.816-17.177-31.795zM190.337 318.049a158.73 158.73 0 0 1-12.906-17.535c-3.934-6.185-7.903-13.204-11.904-21.069s-7.437-15.525-10.304-22.985c-.662-1.72-2.011-5.27-2.592-6.9l-.166-.439-.01-.141c-.598-1.6-.967-3.319-.967-5.135 0-1.175.174-2.305.434-3.399l-.012-.186 5.65-19.675c.015.015.037.015.052.025 1.243-3.58 3.805-6.535 7.106-8.24l-3.048-.91c-1.305-.39-2.944-.68-4.373-.68-.261 0-.506.05-.764.06l-13.767 47.42c-.109.36-.216.695-.325 1.05a246.697 246.697 0 0 0 9.116 20.136c4.001 7.865 7.97 14.885 11.904 21.069a158.636 158.636 0 0 0 12.906 17.535c6.002 6.455 13.705 12.07 23.11 16.841 4.916 2.495 9.398 4.3 13.494 5.489l1.406-4.6.119-.39c-.354-.175-.689-.32-1.049-.5-9.405-4.771-17.107-10.386-23.11-16.841zM96.536 111.553l-5.402 13.712a2372.163 2372.163 0 0 0-22.108 59.283 1523.009 1523.009 0 0 0-19.708 58.99c-6.273 20.1-10.904 36.365-13.906 48.8-3.001 12.436-4.501 21.21-4.501 26.315 0 12.37 5.715 16.215 16.416 18.555 3.42.745 8.426 1.051 14.134.025-.052-.01-.114-.015-.164-.025-10.701-2.34-16.416-6.185-16.416-18.555 0-5.105 1.5-13.88 4.502-26.315 3.001-12.435 7.632-28.7 13.906-48.8 6.268-20.1 12.836-39.76 19.707-58.99 6.868-19.22 14.238-38.983 22.108-59.283l5.402-13.712L126.1 72.851l.585-1.455c-5.038.383-9.937.843-14.555 1.455l-15.594 38.702z"/></g></svg>