<svg xmlns="http://www.w3.org/2000/svg" width="512" height="512"><path fill="#FFF" d="M457.255 368.725c-22.403-8.875-39.612-18.755-51.618-29.646-4.534-4.569-7.773-8.13-9.703-10.689-1.936-2.55-4.173-6.181-6.702-10.891 9.732-2.95 17.204-5.774 22.408-8.465 5.204-2.685 10.805-6.585 16.808-11.695 9.068-7.665 16.068-16.64 21.01-26.92 4.931-10.29 7.4-21.41 7.4-33.38 0-11.155-2.837-21.47-8.502-30.95-5.675-9.48-13.574-17.88-23.714-25.21-10.135-7.32-22.175-13.07-36.11-17.24-13.939-4.165-28.58-6.25-43.919-6.25-15.15 0-28.823.815-41.027 2.435l-15.597 38.706-5.397 13.71a2356.888 2356.888 0 0 0-20.881 55.916 155.338 155.338 0 0 1-8.82-5.405c-4.019-2.646-7.68-5.36-10.999-8.14-.992-.83-2.014-1.66-2.944-2.5-4.535-4.57-7.771-8.136-9.704-10.69-1.935-2.55-4.169-6.18-6.702-10.89 9.736-2.955 17.207-5.78 22.408-8.47 3.833-1.979 7.886-4.625 12.149-7.92 1.525-1.18 3.078-2.43 4.656-3.775 9.067-7.665 16.073-16.635 21.009-26.92a74.17 74.17 0 0 0 3.156-7.67c2.822-8.085 4.25-16.655 4.25-25.705 0-11.157-2.837-21.475-8.502-30.953-5.675-9.478-13.578-17.88-23.714-25.208-10.137-7.325-22.178-13.072-36.113-17.243-13.94-4.165-28.58-6.25-43.919-6.25-15.153 0-28.821.815-41.027 2.435L121.3 111.555l-5.403 13.712a2372.163 2372.163 0 0 0-22.108 59.283 1523.009 1523.009 0 0 0-19.708 58.99c-6.273 20.1-10.904 36.365-13.906 48.8-3.001 12.436-4.502 21.21-4.502 26.315 0 12.37 5.715 16.215 16.416 18.555 5.419 1.181 14.803 1.271 24.683-3.3 9.875-4.569 16.51-10.24 20.741-16 3.927-5.345 8.997-14.37 13.737-26.06 3.214-7.936 6.955-18.841 11.189-32.541.109-.354.216-.689.325-1.05l13.767-47.42 4.859-16.73 2.877-9.729 4.14-14.101 2.741-9.475 6.856-23.793 1.099-3.815.851-2.947 24.386 7.228 15 4.495 8.617 2.583c13.469 3.979 21.141 18.255 17.177 31.795l-7.002 23.85c-3.783 12.93-16.901 20.45-29.778 17.605-.59-.13-1.181-.16-1.769-.335l-6.119-1.825-14.032-4.185c-1.305-.39-2.945-.68-4.374-.68-6.342 0-11.675 4.12-13.655 9.83-.015-.01-.038-.01-.052-.025l-5.651 19.675.013.186c-.261 1.095-.434 2.225-.434 3.399 0 1.815.37 3.535.968 5.135l.01.141.166.439c.581 1.631 1.93 5.181 2.592 6.9 2.868 7.46 6.303 15.12 10.304 22.985s7.97 14.885 11.904 21.069a158.636 158.636 0 0 0 12.906 17.535c4.157 4.471 9.183 8.511 14.969 12.171 2.572 1.63 5.247 3.2 8.141 4.67 1.33.675 2.563 1.189 3.833 1.77 3.423 1.565 6.673 2.851 9.659 3.72-4.743 15.605-8.374 28.61-10.867 38.931-3.002 12.44-4.502 21.21-4.502 26.32 0 12.37 5.715 16.215 16.416 18.55 5.419 1.18 14.803 1.271 24.68-3.3 9.877-4.565 16.511-10.24 20.747-16 3.924-5.34 8.994-14.365 13.731-26.061 3.22-7.93 6.956-18.84 11.192-32.54.109-.35.218-.689.327-1.045l13.762-47.42 4.862-16.735 2.877-9.729 4.137-14.096 2.744-9.475 6.855-23.795 1.102-3.815.849-2.95 24.387 7.23 14.998 4.495 8.617 2.585c13.469 3.98 21.144 18.25 17.175 31.795l-7 23.85c-3.785 12.926-16.902 20.445-29.78 17.605-.586-.13-1.181-.16-1.767-.34l-6.121-1.82-14.03-4.189c-1.305-.386-2.946-.681-4.375-.681-6.341 0-11.674 4.125-13.653 9.83-.015-.01-.039-.01-.049-.02l-5.656 19.67.016.189c-.264 1.091-.432 2.221-.432 3.4 0 1.81.367 3.53.962 5.135l.011.136.168.439c.581 1.63 1.93 5.18 2.59 6.9 2.867 7.46 6.306 15.12 10.309 22.99 3.999 7.859 7.968 14.885 11.901 21.069a159.6 159.6 0 0 0 12.903 17.535c6.003 6.455 13.707 12.065 23.113 16.835 9.4 4.775 17.308 7.16 23.708 7.16 11.604 0 21.54-5.51 29.814-16.54 4.53-6.18 7.869-11.895 10.002-17.14 2.134-5.24 4.4-13.575 6.802-25-1.602-.538-2.931-1.078-4.003-1.613z"/></svg>