<svg xmlns="http://www.w3.org/2000/svg" width="124" height="124"><path fill="#6FCAC7" d="M97.414 1.938h-70c-13.785 0-25 11.215-25 25v70c0 13.785 11.215 25 25 25h70c13.785 0 25-11.215 25-25v-70c0-13.786-11.215-25-25-25zm15 95c0 8.283-6.715 15-15 15h-70c-8.284 0-15-6.717-15-15v-70c0-8.285 6.716-15 15-15h70c8.285 0 15 6.715 15 15v70z"/><g fill="none" stroke="#6FCAC7" stroke-width="2" stroke-linecap="round" stroke-linejoin="round" stroke-miterlimit="10"><circle cx="52.462" cy="56.35" r="9.197"/><circle cx="72.365" cy="56.35" r="9.197"/></g><g fill="#6FCAC7"><circle cx="56.863" cy="58.854" r="2.794"/><circle cx="67.964" cy="58.854" r="2.794"/></g><g fill="#6FCAC7"><path d="M56.205 35.485c-4.711-1.198-10.702.899-10.889 6.425-.035 1.024 2.493.493 2.521-.326.133-3.934 3.16-5.678 6.816-4.749.784.199 2.972-.987 1.552-1.35zM68.623 35.485c4.711-1.198 10.701.899 10.889 6.425.035 1.024-2.494.493-2.521-.326-.131-3.934-3.16-5.678-6.816-4.749-.784.199-2.974-.987-1.552-1.35z"/></g><g fill="#6FCAC7"><path d="M37.625 29.06a6.872 6.872 0 0 0-5.359-2.563 6.893 6.893 0 0 0-6.894 6.893 6.878 6.878 0 0 0 2.653 5.428 42.26 42.26 0 0 1 9.6-9.758zM96.803 38.816a6.879 6.879 0 0 0 2.654-5.428 6.893 6.893 0 0 0-12.254-4.33 42.34 42.34 0 0 1 9.6 9.758z"/></g><path fill="none" stroke="#6FCAC7" stroke-width="2" stroke-linecap="round" stroke-linejoin="round" stroke-miterlimit="10" d="M51.629 82.294v14.31l3.615 3.434h7.171V82.294zM73.199 82.294v14.31l-3.615 3.434h-7.169V82.294z"/><path fill="#6FCAC7" d="M73.896 68.819c-.248 0-.492.021-.736.035.102-1.242-.018-2.31-.445-3.035-1.479-2.517-8.271-2.712-10.318-2.712-2.521 0-8.56.258-10.152 2.65-.502.753-.667 1.849-.592 3.112a.088.088 0 0 1-.002-.016c-.239-.015-.477-.035-.72-.035-6.342 0-11.482 5.141-11.482 11.481 0 6.342 5.141 11.482 11.482 11.482 5.204 0 9.593-3.465 11.003-8.209.162.015.324.025.486.025h.052c.236-.003.473-.042.709-.076-.096.014-.191.043-.287.052 1.41 4.745 5.799 8.208 11.002 8.208 6.342 0 11.482-5.141 11.482-11.482.001-6.339-5.14-11.48-11.482-11.48zm-5.902 7.285c-.059.104-.119.192-.176.292-.898-.755-1.875-1.034-2.396-.595-.631.529-.354 1.898.605 3.097-1.201 1.338-2.439 2.078-3.58 2.089l-.027 1.308.001-1.308c-1.149 0-2.412-.745-3.635-2.072.972-1.201 1.255-2.582.619-3.113-.529-.445-1.529-.153-2.437.631-.172-.286-.344-.571-.509-.878-2.036-3.806-2.578-7.545-2.043-8.348.399-.599 3.212-1.488 7.979-1.488 4.974 0 7.71.935 8.066 1.427.457.77-.15 4.864-2.467 8.958z"/><g fill="#6FCAC7"><path d="M109.912 72.257c-.379-.043-.76-.102-1.145-.16-.289-.044-.58-.088-.871-.127a1.502 1.502 0 0 0-.885 2.821c2.387 1.229 4.139 2.727 5.557 4.804-3.037-.625-6.693-.272-10.797 1.028-1.898.602-2.914 1.104-4.023 3.102a36.45 36.45 0 0 1-1.744 2.793c-2.842 4.185-6.516 7.894-10.623 10.726-6.678 4.606-14.844 7.143-22.992 7.143-4.418 0-8.925-.999-11.928-1.837-6.52-1.816-12.604-5.553-17.593-10.806-2.187-2.303-4.101-4.958-5.688-7.895-1.645-3.039-4.055-3.459-6.605-3.904l-.235-.041c-1.676-.294-3.461-.58-5.248-.58-.982 0-1.896.084-2.771.256 1.543-2.096 3.605-3.767 5.9-4.739a1.499 1.499 0 0 0 .874-1.728 1.494 1.494 0 0 0-1.559-1.15c-.624.042-1.247.121-1.841.198-.268.034-.529.068-.78.097-2.25.252-4.343.547-6.357.891l.05 3.039c1.022-.18 2.06-.351 3.135-.504a18.399 18.399 0 0 0-3.076 4.084l.084 5.098c.434.089.892-.021 1.241-.301.395-.318.712-.65.992-.943.511-.534.8-.819 1.275-.947.87-.235 1.797-.35 2.832-.35 1.548 0 3.12.253 4.73.535l.237.041c2.511.438 3.566.684 4.482 2.376 1.713 3.169 3.782 6.04 6.15 8.534 5.364 5.646 11.921 9.667 18.963 11.629 3.184.889 7.976 1.947 12.733 1.947 8.75 0 17.521-2.725 24.695-7.673a43.744 43.744 0 0 0 11.402-11.511 39.716 39.716 0 0 0 1.885-3.021c.611-1.101.859-1.239 2.307-1.698 3.889-1.233 7.273-1.513 9.877-.81.475.128.764.413 1.275.948.279.292.596.624.99.941.076.061.158.11.242.155v-6.786a17.563 17.563 0 0 0-1.787-2.222c.605.088 1.199.182 1.787.277v-3.036a112.183 112.183 0 0 0-5.147-.694zM115.063 69.512v-3.499 3.499a20.81 20.81 0 0 0-2.795-1.533c-1.334-.613-2.777-1.18-4.172-1.727l-1.1-.434c-1.744-.692-4.057-2.016-4.186-5.523l-.002-.02a40.433 40.433 0 0 0-3.365-13.032 1.5 1.5 0 0 1 .5-1.836 14.304 14.304 0 0 0 6.037-11.644c0-7.871-6.404-14.275-14.277-14.275a14.27 14.27 0 0 0-11.848 6.31 1.496 1.496 0 0 1-1.822.545 40.346 40.346 0 0 0-15.644-3.128 40.346 40.346 0 0 0-15.644 3.128 1.498 1.498 0 0 1-1.823-.545 14.274 14.274 0 0 0-11.849-6.31c-7.872 0-14.276 6.404-14.276 14.275 0 4.609 2.257 8.962 6.037 11.644.583.414.793 1.183.501 1.836a40.304 40.304 0 0 0-3.437 13.918c-.203 3.126-2.717 4.122-4.066 4.657l-1.103.435c-1.395.547-2.837 1.112-4.171 1.726-1.251.574-2.766 1.376-4.045 2.491l-.061-3.703c.991-.625 1.982-1.114 2.854-1.515 1.411-.648 2.894-1.229 4.327-1.792l1.093-.431c1.667-.66 2.114-1.084 2.178-2.063a43.35 43.35 0 0 1 3.221-13.855 17.309 17.309 0 0 1-6.328-13.348c0-9.525 7.75-17.275 17.276-17.275a17.263 17.263 0 0 1 13.618 6.643 43.316 43.316 0 0 1 15.697-2.916c5.417 0 10.691.98 15.697 2.916a17.264 17.264 0 0 1 13.617-6.643c9.527 0 17.277 7.75 17.277 17.275 0 5.173-2.346 10.077-6.328 13.348a43.329 43.329 0 0 1 3.129 12.725c.016.079.023.161.025.245.025 1.514.625 2.285 2.295 2.949l1.09.429c1.436.563 2.918 1.145 4.33 1.793l1.541.761"/></g><path opacity=".4" fill="#6FCAC7" d="M113.932 66.102c-1.379-.62-2.934-.416-4.361-.828-1.389-.401-2.512-1.316-3.57-2.27-2.053-1.846-2.256-3.649-2.617-6.272-.256-1.86-.461-3.732-.861-5.569-.289-1.333-1.596-3.575-1.264-4.931.191-.775 1.721-1.951 2.379-2.604 3.061-3.038 3.131-7.781 3.773-11.792.484-3.02-1.885-6.886-3.777-9.059-4.32-4.966-12.832-6.662-18.76-3.546-1.666.875-3.359 2.412-4.889 3.591-1.072.826-1.428 1.651-2.848 1.156-1.59-.556-2.826-1.332-4.563-1.494-5.633-.525-12.052-1.045-17.673-.267-2.39.331-6.483 2.839-8.774 1.791-1.139-.521-2.319-1.722-3.274-2.496-3.01-2.44-7.026-4.038-10.959-3.656-7.729.753-12.2 5.776-14.167 12.907-1.464 5.309-.015 8.534 3.026 12.819.789 1.112 3.006 2.94 3.245 4.275.145.811-.737 3.177-.992 3.983-1.099 3.478-2.163 7.073-3.019 10.619-.344 1.419-2.441 1.587-3.582 1.92-1.876.548-3.594 1.584-5.342 2.459-1.712.856-2.622 2.075-2.81 4.001-.245 2.519-1.297 5.394-.495 7.899.816 2.552 5.59 2.552 7.696 2.755 3.198.309 7.418.358 10.028 2.469 1.688 1.364 2.304 3.829 3.591 5.459 3.728 4.719 8.886 8.262 13.758 11.813 3.324 2.424 7.429 3.681 11.456 4.307 3.935.611 8.359 1.107 12.32.551 3.063-.431 6.043-1.532 8.992-2.433 6.32-1.931 12.682-4.678 16.275-10.558 1.922-3.145 5.494-5.052 7.262-8.491 1.109-2.16 3.973-3.081 6.172-3.53 1.063-.217 9.436-.094 9.438-.119.197-3.397 1.418-6.657 1.336-10.095-.047-1.919-.213-3.891-2.15-4.764zM43.997 58.7c-.804-2.773-.278-5.875 1.241-8.311 2.346-3.76 6.801-4.023 10.555-2.635 1.114.413 2.034.729 2.928 1.511 3.262 2.853 4.307 8.344 1.541 11.952-2.085 2.719-7.509 5.681-10.875 3.791-2.918-1.637-4.442-3.041-5.39-6.308zm29.316 37.59c-.65 1.969-3.629 3.947-5.623 4.148-2.379.24-4.963-.397-7.373-.422-2.386-.024-4.868-.138-6.732-1.828-1.968-1.784-1.705-3.113-1.833-5.7-.108-2.189.527-4.013 2.382-5.253 2.388-1.597 5.021-3.84 8.076-3.671 1.201.066 2.275.46 3.287 1.002 1.326.711 2.549 1.676 3.809 2.49 1.408.91 3.193 1.488 3.867 3.175.597 1.501.634 4.561.14 6.059zm6.576-34.665c-2.086 2.719-7.51 5.681-10.875 3.791-2.918-1.638-4.441-3.042-5.391-6.309-.803-2.773-.277-5.875 1.242-8.311 2.346-3.76 6.801-4.023 10.555-2.635 1.113.413 2.033.729 2.928 1.511 3.261 2.853 4.306 8.345 1.541 11.953z"/><path opacity=".4" fill="#FFF" d="M49.758 74.856c-3.225 0-3.225 5 0 5s3.225-5 0-5zM46.633 80.856c-3.225 0-3.225 5 0 5s3.225-5 0-5zM53.883 81.481c-3.225 0-3.225 5 0 5s3.225-5 0-5zM71.508 80.731c-3.225 0-3.225 5 0 5s3.224-5 0-5zM75.133 73.106c-3.225 0-3.225 5 0 5s3.224-5 0-5zM79.508 79.856c-3.225 0-3.225 5 0 5s3.224-5 0-5z"/></svg>