<svg xmlns="http://www.w3.org/2000/svg" width="124" height="124">
  <g fill="#036D8B">
    <path opacity=".4" d="M92.16 62.125c-3.705.112-1.506 6.652-8.773 3.713-2.551-1.031-3.986-2.519-3.701-5.286.076-.748.613-2.907.07-3.496-1.027-1.118-1.99 2.091-2.484 2.773-1.729 2.382-5.914 1.184-7.928-.06-1.822-1.123-1.957-2.823-1.758-4.644a.376.376 0 0 1-.02.046c-.176 1.127-.48 2.079-1.777 2.659-2.482 1.111-5.523 1.108-8.002 0-1.298-.58-1.601-1.532-1.777-2.659l-.019-.046c.198 1.82.064 3.521-1.758 4.644-2.014 1.243-6.199 2.441-7.928.06-.495-.683-1.456-3.892-2.484-2.773-.542.589-.006 2.748.07 3.496.285 2.767-1.15 4.255-3.7 5.286-1.806.73-4.392 1.401-5.599-.625.266.445-.18 1.824-.205 2.401-.14 3.245-.345 6.745-.201 9.986.167 3.765.199 8.597 1.887 12.046 1.412 2.889 3.897 5.225 6.345 7.242 1.112.918 4.27 2.004 4.706 3.377 1.24 3.899 4.391 6.674 8.091 6.675 2.293.001 3.854-1.972 6.018-2.291 2.465-.363 4.449 2.291 7.102 2.291 3.693 0 6.838-2.765 8.084-6.653 10.709-6.325 18.305-19.381 19.184-34.724-1.224-1.286-1.249-3.504-3.443-3.438zM51.072 76.27c-1.177 0-2.13-.754-2.13-1.686 0-.931.953-1.686 2.13-1.686 1.176 0 2.13.755 2.13 1.686 0 .932-.954 1.686-2.13 1.686zm3.118-3.395a.581.581 0 0 1-.097.072c-.472.279-1.319-.127-1.751-.313-1.06-.459-2.311-1.195-3.384-.349-.576.455-.809 1.6-1.743 1.351-.858-.229-1.299-1.729-1.359-2.479-.349-4.32 6.095-6.688 7.936-2.356.263.618.439 1.282.518 1.949.063.539.345 1.694-.12 2.125zm20.601 3.802c-1.229 0-2.223-.989-2.223-2.211s.994-2.211 2.223-2.211 2.223.989 2.223 2.211-.994 2.211-2.223 2.211zm3.777-4.279c-.328 2.092-1.686.241-2.666-.283-.627-.334-1.486-.766-2.225-.604-.59.129-.963.644-1.398 1.018-.484.414-1.434.771-1.848.094-.602-.984.236-3.262.801-4.104 1.281-1.913 3.125-2.06 5.137-1.154 1.947.871 2.508 3.061 2.199 5.033z"/>
    <path opacity=".4" d="M37.306 58.752c-.236 0-.47-.084-.655-.244-1.365-1.184-2.997-1.813-4.851-1.868l-.275-.004c-1.775 0-3.354.531-4.676 1.579a.996.996 0 0 1-.999.142 1 1 0 0 1-.614-.802 7.744 7.744 0 0 0-1.395-3.547c-1.16-1.643-2.791-2.715-4.717-3.101a1 1 0 0 1-.636-1.536 7.514 7.514 0 0 0 1.27-3.95c.064-1.733-.414-3.297-1.42-4.646a1.002 1.002 0 0 1 .693-1.592c1.801-.197 3.357-1.011 4.502-2.353.172-.201.324-.404.47-.616.651-.95.983-2.061.962-3.211a35.204 35.204 0 0 1 .004-1.691 1.002 1.002 0 0 1 1.393-.89 5.62 5.62 0 0 0 2.188.442c.567 0 1.12-.084 1.642-.251 1.925-.611 3.362-2.198 3.752-4.141l.059-.3a1.012 1.012 0 0 1 1.335-.765 5.557 5.557 0 0 0 3.007.241 5.494 5.494 0 0 0 3.378-2.177.998.998 0 0 1 1.29-.292c.763.415 1.952.968 3.476.968 1.096 0 3.812-.329 5.361-3.375a1.005 1.005 0 0 1 .891-.547c.179 0 .356.048.513.142a5.542 5.542 0 0 0 2.846.774 5.452 5.452 0 0 0 4.951-3.142 1 1 0 0 1 .655-.542 2.98 2.98 0 0 1 .101-.025 1 1 0 0 1 1.139.546 5.474 5.474 0 0 0 2.964 2.776 5.419 5.419 0 0 0 1.99.371 5.556 5.556 0 0 0 2.854-.777 1 1 0 0 1 1.406.406c1.55 3.062 4.273 3.393 5.373 3.393 1.522-.001 2.711-.553 3.473-.968a1 1 0 0 1 1.289.292 5.507 5.507 0 0 0 6.386 1.937.995.995 0 0 1 1.332.751l.061.314a5.501 5.501 0 0 0 3.727 4.16 5.47 5.47 0 0 0 1.661.255c.758 0 1.516-.154 2.191-.447a1.005 1.005 0 0 1 .934.074c.28.179.453.483.463.815.012.427.016.973.002 1.672a5.478 5.478 0 0 0 .965 3.215c.144.209.294.411.467.612 1.146 1.343 2.702 2.156 4.503 2.354a1.003 1.003 0 0 1 .693 1.593c-1.007 1.349-1.485 2.911-1.423 4.645a7.53 7.53 0 0 0 1.271 3.951.998.998 0 0 1-.635 1.536c-1.927.387-3.558 1.459-4.719 3.102a7.76 7.76 0 0 0-1.394 3.547 1.002 1.002 0 0 1-.992.876.996.996 0 0 1-.621-.216c-1.322-1.049-2.9-1.58-4.69-1.58l-.279.005c-1.837.056-3.468.684-4.833 1.866a1 1 0 0 1-1.654-.728c-.051-1.808-.603-3.259-1.686-4.436-1.192-1.296-2.787-2.01-4.492-2.01-1.91 0-3.48.766-4.799 2.34a1 1 0 0 1-1.715-.322 5.475 5.475 0 0 0-3.794-3.528 5.49 5.49 0 0 0-1.419-.187c-2.044 0-3.915 1.143-4.883 2.981a1 1 0 0 1-.885.534l-.031-.001c-.363-.011-.742-.218-.909-.54a5.478 5.478 0 0 0-4.885-2.975c-.478 0-.954.063-1.416.186A5.478 5.478 0 0 0 51 53.352a.997.997 0 0 1-.948.68c-.293 0-.574-.129-.767-.358-1.319-1.575-2.889-2.341-4.799-2.341-1.704 0-3.3.714-4.493 2.011-1.082 1.176-1.634 2.626-1.686 4.436a1.002 1.002 0 0 1-1.001.972z"/>
    <path d="M50.366 66.088c-2.71 0-4.917 2.563-4.917 5.711s2.207 5.71 4.917 5.71c2.713 0 4.917-2.562 4.917-5.71s-2.204-5.711-4.917-5.711zm1.125 9.471c-.587 0-1.063-.499-1.063-1.115 0-.617.477-1.115 1.063-1.115s1.064.498 1.064 1.115c.001.616-.477 1.115-1.064 1.115zm2.312-3.156c-.057-1.005-.452-2.04-1.131-2.521-2.803-1.986-4.983.447-5.654 3.039a5.279 5.279 0 0 1-.124-1.123c0-2.375 1.559-4.305 3.473-4.305 1.916 0 3.474 1.93 3.474 4.305a5.99 5.99 0 0 1-.038.605zm25.316-.604c0-3.148-2.207-5.711-4.916-5.711-2.713 0-4.918 2.563-4.918 5.711s2.205 5.71 4.918 5.71c2.709 0 4.916-2.562 4.916-5.71zm-8.346.657a5.278 5.278 0 0 1-.045-.657c0-2.375 1.559-4.305 3.475-4.305 1.914 0 3.473 1.93 3.473 4.305 0 .273-.023.542-.064.803-.178-1.63-.803-3.1-2.898-3.182-1.708-.068-3.355 1.42-3.941 3.036zm2.135 1.987c0-.617.479-1.115 1.066-1.115.586 0 1.063.498 1.063 1.115 0 .616-.477 1.115-1.063 1.115-.587.001-1.066-.498-1.066-1.115z"/>
    <path d="M97 2H26.999C13.215 2 2 13.215 2 27v70c0 13.785 11.215 25 24.999 25H97c13.785 0 25-11.215 25-25V27c0-13.785-11.215-25-25-25zm0 10c8.285 0 15 6.716 15 15v5.242a5.185 5.185 0 0 0-2.6-.666c-.857 0-1.65.167-2.348.314-.369.077-.721.151-.998.181.021-3.079-.277-7.145-4.281-8.989-1.773-.816-3.629-.906-5.244-.275-.393-1.863-1.109-3.669-3.717-4.869-2.174-1.002-4.039-1.018-5.688-.048-.834-.932-2.029-1.616-3.609-2.071-.725-.209-1.369-.311-1.971-.311-1.367 0-2.346.51-3.439 1.123a6.393 6.393 0 0 0-.271-.621c-.789-1.565-2.289-2.671-4.457-3.285-1.619-.458-3.221-.356-4.572.268a4.79 4.79 0 0 0-.74-.992H97zM22.226 23.082c-4.002 1.843-4.303 5.91-4.28 8.989-.278-.029-.631-.104-.999-.181-.698-.147-1.49-.314-2.348-.314-.96 0-1.826.228-2.599.667V27c0-8.284 6.716-15 14.999-15h29.562a5.57 5.57 0 0 0-1.005.858 4.503 4.503 0 0 0-.142.168c-1.337-.692-3.014-.807-4.79-.303-2.17.614-3.669 1.72-4.458 3.284a6.28 6.28 0 0 0-.271.623c-1.095-.613-2.073-1.123-3.441-1.123-.601 0-1.246.102-1.971.311-1.579.455-2.773 1.14-3.608 2.072-1.646-.971-3.515-.954-5.688.047-2.607 1.2-3.324 3.006-3.717 4.869M12 44.209c.598.394.765.584.756.812-.012.324-.246.592-.756.98v-1.792zm0 5.556c.293-.284.665-.555 1.113-.868 1.084-.758 2.569-1.795 2.641-3.767.077-2.098-1.509-3.072-2.668-3.783-.43-.264-.794-.494-1.086-.741v-3.891c.993-2.135 2.067-2.139 2.599-2.139.545 0 1.147.127 1.729.25.604.127 1.229.259 1.839.259.973 0 1.752-.336 2.316-.997.078-.092.146-.185.212-.281.177-.257.269-.563.263-.875-.063-3.35.084-6.002 2.522-7.125 1.503-.69 2.922-.519 4.031.53a1.502 1.502 0 0 0 2.501-.795c.076-.377.14-.743.202-1.097.374-2.134.591-3.03 2.226-3.783.696-.319 1.312-.482 1.829-.482.692 0 1.242.28 1.899.967a1.499 1.499 0 0 0 2.483-.497c.238-.619.757-1.399 2.66-1.948 1.353-.389 1.737-.228 3.294.647l.219.122c.655.367 1.165.53 1.651.53 1.477 0 1.902-1.329 2.084-1.896.079-.246.16-.499.284-.745.396-.784 1.269-1.373 2.596-1.749 1.509-.426 2.688-.175 3.435.804a1.502 1.502 0 0 0 2.69-1.009c-.009-.134.012-.304.236-.558.893-1.008 3.408-1.656 4.879-1.737 1.307-.074 2.563.294 3.203.943.365.369.537.832.529 1.416a1.5 1.5 0 1 0 2.611 1.027c.895-.986 2.131-1.284 3.535-.886 1.328.375 2.201.964 2.598 1.75.123.243.203.496.281.741.182.568.607 1.898 2.086 1.898.486 0 .996-.163 1.65-.53l.217-.122c1.559-.875 1.945-1.036 3.295-.647 1.904.549 2.422 1.329 2.66 1.947a1.501 1.501 0 0 0 2.484.498c.656-.687 1.207-.967 1.9-.967.518 0 1.133.163 1.828.483 1.635.752 1.852 1.647 2.225 3.78.063.354.127.721.203 1.099a1.499 1.499 0 0 0 2.5.795c1.111-1.05 2.531-1.221 4.031-.53 2.441 1.124 2.586 3.775 2.523 7.124a1.5 1.5 0 0 0 .262.876c.066.097.135.189.213.28.564.662 1.344.998 2.316.998.609 0 1.234-.132 1.838-.259.582-.123 1.186-.25 1.73-.25.531 0 1.605.004 2.6 2.137v3.893c-.293.247-.658.478-1.088.741-1.158.711-2.744 1.686-2.668 3.783.072 1.972 1.557 3.009 2.641 3.767.449.313.822.584 1.115.868v3.652c-.76 1.608-1.494 1.629-2.012 1.63-.463 0-.984-.101-1.535-.206-.617-.119-1.254-.241-1.908-.241-1.33 0-2.377.528-3.113 1.571-1.221 1.726-.646 3.446-.227 4.702.553 1.66.76 2.281-2.545 3.412-1.035.354-1.893.533-2.549.533-1.061 0-1.32-.399-1.916-1.556-.566-1.104-1.426-2.772-3.729-2.772l-.143.002c-2.318.07-3.232 1.789-3.836 2.927-.654 1.231-.912 1.544-1.756 1.544-.641 0-1.508-.219-2.572-.649-2.523-1.021-2.932-2.188-2.771-3.743.016-.139.049-.333.086-.558.293-1.76.449-3.179-.402-4.105-.547-.595-1.145-.72-1.551-.72-1.559 0-2.324 1.654-2.939 2.983-.127.271-.23.515-.313.643-.361.498-1.008.75-1.918.75-1.422 0-3.037-.604-4.01-1.204-.982-.606-1.25-1.415-1.053-3.204a1.49 1.49 0 0 0-1.137-1.609 1.506 1.506 0 0 0-1.742.874 1.528 1.528 0 0 0-.115.387c-.15.976-.32 1.26-.906 1.521-1.127.504-2.198.719-3.315.68a2.4 2.4 0 0 0-.12 0c-1.135.045-2.216-.176-3.343-.68-.585-.262-.755-.546-.908-1.522a1.893 1.893 0 0 0-.126-.415 1.5 1.5 0 0 0-2.865.763c.195 1.79-.071 2.599-1.055 3.205-.971.6-2.587 1.204-4.008 1.204-.912 0-1.557-.252-1.909-.736-.092-.143-.196-.387-.322-.658-.615-1.328-1.381-2.981-2.939-2.981-.405 0-1.003.125-1.549.719-.854.928-.697 2.347-.404 4.106.038.225.071.419.086.56.16 1.553-.247 2.721-2.771 3.741-1.065.431-1.932.649-2.574.649-.843 0-1.101-.313-1.755-1.544-.604-1.138-1.517-2.856-3.837-2.928l-.142-.002c-2.303 0-3.161 1.669-3.729 2.773-.595 1.156-.854 1.556-1.916 1.556-.655 0-1.514-.18-2.55-.534-3.305-1.13-3.098-1.751-2.544-3.41.42-1.257.994-2.978-.226-4.702-.737-1.044-1.784-1.572-3.114-1.572-.654 0-1.291.122-1.907.241-.551.105-1.072.206-1.536.206-.474 0-1.246-.021-2.011-1.634v-3.648zm100-5.556v1.793c-.512-.39-.746-.657-.758-.981-.008-.227.158-.418.758-.812zm-5.949 15.715c-.365-1.092-.482-1.58-.17-2.021.158-.224.281-.303.664-.303.369 0 .842.091 1.342.187.633.122 1.352.261 2.102.261.74 0 1.406-.148 2.012-.42v19.398c-4.014-3.034-6.332-6.516-8.416-10.725 3.571-1.856 3.179-4.238 2.466-6.377zM73.293 98.75a4.27 4.27 0 0 1 .621 1.705c-.051.089-.113.172-.145.271-.975 3.04-3.393 5.083-6.018 5.083-1.523 0-3.01-.682-4.185-1.922a1.451 1.451 0 0 0-.175-.149c.021-.087.034-.179.036-.278.067-3.313-.571-6.623.093-9.908.009-.045.008-.086.013-.129 1.485-1.027 2.538-3.427 3.458-4.621.721-.938 1.934-1.28 2.699-2.205.258-.311.361-.578.346-.803-.068-1.08-2.818-1.208-3.934-.761-.078.013-.15.024-.207.038-1.395.31-2.992 1.514-3.761 2.637l-.065.057c-.524-.711-1.204-1.295-2.234-1.637a6.985 6.985 0 0 0-4.313-.033c-1.816.586-2.149 1.389-.461 2.211 1.886.916 3.34 1.923 4.482 3.699.488.756.886 1.384 1.486 1.697-.485 3.239.006 6.45-.056 9.72-.42-.005-.824.16-1.114.465-1.176 1.24-2.661 1.923-4.185 1.923-2.632 0-5.052-2.049-6.021-5.099a1.495 1.495 0 0 0-.22-.411 4.316 4.316 0 0 1 .599-1.549c.818-1.324-1.306-2.526-2.12-1.207-.247.4-.436.819-.597 1.246-5.24-3.635-9.41-9.14-12.066-15.635-.119-.955-.212-1.896-.227-2.854l-.035-2.004c-.067-3.594-.113-7.262.147-10.846.567.306 1.252.512 2.13.512 1.044 0 2.254-.283 3.699-.868 1.2-.485 4.725-1.911 4.672-6.108.947 1.034 2.322 1.577 4.012 1.577 2.146 0 4.35-.89 5.583-1.65.915-.564 1.519-1.24 1.905-1.965.08.041.163.08.249.118 1.537.688 3.033.997 4.627.941 1.556.05 3.063-.254 4.601-.941.086-.038.168-.077.248-.118.387.725.99 1.399 1.906 1.964 1.234.762 3.436 1.651 5.584 1.651 1.688 0 3.063-.543 4.012-1.577-.055 4.197 3.471 5.623 4.672 6.108 1.445.585 2.654.868 3.697.868.877 0 1.561-.205 2.127-.509.262 3.589.219 7.261.152 10.86l-.035 1.986a19.98 19.98 0 0 1-.041.919c-2.602 7.377-7.1 13.651-12.902 17.638a7.117 7.117 0 0 0-.621-1.314c-.813-1.319-2.936-.117-2.118 1.207zM12 77.025V57.627c.605.271 1.271.42 2.011.42.75 0 1.469-.139 2.104-.261.5-.096.972-.187 1.34-.187.382 0 .506.079.664.304.313.44.194.929-.17 2.021-.713 2.139-1.105 4.521 2.468 6.377-2.085 4.209-4.402 7.691-8.417 10.724zm5.893 26.782c8.341-2.029 11.247-7.508 11.75-15.477.387-6.137-.284-12.508 1.434-18.494.266-.924 2.683-1.226 2.392-.217-2.126 7.399-.42 15.207-1.945 22.684-1.503 7.354-5.913 11.151-13.236 12.932-1.454.353-1.855-1.074-.395-1.428zM97 112H26.999c-.502 0-.992-.041-1.479-.094 3.572-2.123 5.617-5.516 7.272-8.949 1.768-3.667 2.821-7.486 3.13-11.35.014-.168.007-.329.016-.494 2.909 4.535 6.638 8.336 11.047 11.055 1.487 3.996 4.917 6.641 8.691 6.641 2.137 0 4.195-.836 5.864-2.369.116.002.232.003.347.001 1.669 1.532 3.729 2.368 5.865 2.368 3.766 0 7.193-2.637 8.684-6.621 4.654-2.865 8.594-7.039 11.596-12.035 0 .48.008.963.047 1.455.309 3.863 1.361 7.682 3.129 11.35 1.656 3.435 3.703 6.828 7.271 8.949-.487.052-.977.093-1.479.093zm21.068-8.141c-.631.67-2.932.507-1.945-.538 5.189-5.498.113-13.341-3.939-17.972-2.436-2.789-5.523-5.035-7.908-7.836-2.086-2.451-3.396-5.126-4.729-8.008-.391-.846 1.945-1.538 2.369-.619 2.217 4.793 4.818 7.834 8.602 11.481 2.551 2.459 5.018 5.075 6.885 8.082 3.068 4.941 5.13 10.68.665 15.41z"/>
    <path d="M16.093 52.711c.51-.077.944-.113 1.368-.113 1.96 0 3.646.858 4.746 2.417 1.114 1.574 1.37 3.39.783 5.55-.208.763.255 1.57 1.003 1.827.213.072.4.131.566.179a1.499 1.499 0 0 0 1.732-.717c1.246-2.265 2.963-3.365 5.247-3.365l.202.003c2.236.068 3.949 1.188 5.234 3.425a1.498 1.498 0 0 0 1.831.655l.291-.113c.326-.132.563-.248.73-.339.563-.304.871-.932.768-1.563l-.037-.217c-.271-1.62-.679-4.069.903-5.788.811-.881 1.884-1.365 3.022-1.365 1.879 0 3.247 1.068 4.435 3.466.306.615.99.946 1.663.8a7.366 7.366 0 0 0 1.253-.402c.603-.254.971-.868.911-1.52l-.017-.161a3.483 3.483 0 0 1 2.578-3.761c1.643-.438 3.428.426 4.107 1.979l.051.121c.027.068.054.137.077.206.169.508.595.887 1.118.995.334.069.665.092 1.046.103l.312-.007.344.007c.333 0 .657-.033.99-.104.52-.108.943-.483 1.114-.986.031-.093.066-.185.131-.335.68-1.553 2.469-2.415 4.108-1.979a3.475 3.475 0 0 1 2.58 3.74l-.019.18c-.062.653.31 1.271.916 1.523.41.171.846.308 1.26.396a1.492 1.492 0 0 0 1.653-.802c1.187-2.393 2.554-3.459 4.432-3.459 1.139 0 2.211.484 3.021 1.364 1.584 1.72 1.176 4.169.904 5.795l-.033.198c-.11.635.197 1.27.765 1.575.169.091.404.207.727.337l.293.115a1.503 1.503 0 0 0 1.833-.655c1.284-2.236 2.996-3.356 5.23-3.424l.205-.004c2.315 0 3.983 1.069 5.249 3.366a1.5 1.5 0 0 0 1.731.717c.166-.049.354-.107.511-.162l.114-.038a1.501 1.501 0 0 0 .944-1.807c-.587-2.16-.331-3.975.78-5.549 1.102-1.559 2.788-2.418 4.749-2.418.423 0 .857.036 1.366.113a1.5 1.5 0 0 0 1.132-2.677c-1.158-.879-2.708-2.336-2.8-4.833-.104-2.865 1.703-4.376 3.484-5.475.632-.391.868-1.221.575-1.904a12.693 12.693 0 0 0-.136-.306 1.498 1.498 0 0 0-1.642-.825l-.446.092c-.671.141-1.431.301-2.248.301-1.54 0-2.903-.603-3.838-1.697a5.429 5.429 0 0 1-.341-.449 3.476 3.476 0 0 1-.612-2.044c.062-3.251-.198-4.192-.7-4.792l-.003.002a1.884 1.884 0 0 0-.658-.481 3.114 3.114 0 0 0-.396-.15 1.504 1.504 0 0 0-1.446.339 3.535 3.535 0 0 1-3.442.771 3.501 3.501 0 0 1-2.371-2.646 50.48 50.48 0 0 1-.22-1.198c-.075-.424-.17-.947-.253-1.27a1.504 1.504 0 0 0-.914-1.026 1.498 1.498 0 0 0-1.558.274 3.522 3.522 0 0 1-3.023.824 3.517 3.517 0 0 1-2.477-1.938 1.492 1.492 0 0 0-.747-.73 5.467 5.467 0 0 0-.704-.251 1.507 1.507 0 0 0-1.117.116c-.183.097-.415.227-.641.354l-.222.124c-.601.337-1.527.784-2.628.785-1.097 0-3.072-.427-3.988-3.286a1.498 1.498 0 0 0-.81-.926 4.793 4.793 0 0 0-.895-.301 1.512 1.512 0 0 0-1.392.428c-.963.999-2.512 1.339-3.805.831a3.497 3.497 0 0 1-2.131-2.479 1.504 1.504 0 0 0-1.466-1.167l-.242.006c-.88.048-1.893.323-2.492.545-.43.159-.763.505-.905.939a3.485 3.485 0 0 1-2.097 2.188c-1.295.483-2.812.133-3.758-.855a1.501 1.501 0 0 0-1.448-.419l-.105.028c-.33.094-.557.185-.706.253a1.531 1.531 0 0 0-.815.927c-.91 2.86-2.886 3.288-3.983 3.288-1.086 0-1.976-.42-2.627-.784l-.234-.131c-.207-.117-.443-.25-.63-.348a1.499 1.499 0 0 0-1.122-.115c-.33.096-.557.187-.705.253a1.492 1.492 0 0 0-.741.728 3.518 3.518 0 0 1-2.477 1.938 3.529 3.529 0 0 1-3.021-.823 1.5 1.5 0 0 0-1.628-.246 1.507 1.507 0 0 0-.847 1.001c-.085.331-.183.877-.261 1.319-.064.369-.133.752-.211 1.144-.247 1.229-1.165 2.235-2.396 2.626-1.166.37-2.512.071-3.434-.762a1.497 1.497 0 0 0-1.437-.325 2.82 2.82 0 0 0-.388.147 2.184 2.184 0 0 0-.423.249 1.537 1.537 0 0 0-.24.23c-.499.601-.759 1.542-.698 4.793a3.476 3.476 0 0 1-.613 2.043 4.88 4.88 0 0 1-.34.447c-.935 1.096-2.298 1.699-3.838 1.699-.82 0-1.58-.16-2.299-.312l-.396-.081a1.499 1.499 0 0 0-1.644.832c-.05.104-.165.378-.169.387a1.5 1.5 0 0 0 .611 1.816c1.781 1.1 3.588 2.61 3.482 5.476-.091 2.497-1.641 3.953-2.799 4.832a1.5 1.5 0 0 0 1.134 2.678zm8.2-15.378a8.37 8.37 0 0 0 .534-.701 6.46 6.46 0 0 0 1.137-3.795 33.2 33.2 0 0 1 .004-1.642 6.584 6.584 0 0 0 4.525.225c2.27-.722 3.967-2.597 4.429-4.896l.063-.325a6.565 6.565 0 0 0 3.552.283 6.53 6.53 0 0 0 3.993-2.571c.898.489 2.246 1.09 3.954 1.09 1.073 0 4.414-.309 6.253-3.922a6.584 6.584 0 0 0 5.621.51 6.464 6.464 0 0 0 3.594-3.31l.085-.021a6.495 6.495 0 0 0 3.503 3.281c1.864.732 4.027.536 5.725-.479 1.838 3.63 5.189 3.94 6.266 3.94 1.708-.001 3.053-.6 3.951-1.09a6.537 6.537 0 0 0 3.993 2.571 6.533 6.533 0 0 0 3.552-.283l.063.328a6.502 6.502 0 0 0 4.403 4.913 6.566 6.566 0 0 0 4.553-.228c.012.414.016.944.002 1.623a6.472 6.472 0 0 0 1.14 3.801c.166.24.337.47.533.698 1.31 1.534 3.113 2.473 5.152 2.696-.956 1.281-1.702 3.009-1.62 5.279a8.5 8.5 0 0 0 1.438 4.47c-2.167.435-4.021 1.642-5.338 3.505-.867 1.227-1.391 2.563-1.569 4-1.796-1.424-3.755-1.796-5.312-1.796l-.294.005c-1.588.048-3.619.505-5.473 2.11-.047-1.65-.486-3.494-1.949-5.084-1.384-1.505-3.24-2.333-5.229-2.333-2.2 0-4.064.905-5.565 2.698a6.467 6.467 0 0 0-4.483-4.175 6.504 6.504 0 0 0-1.677-.22c-2.419 0-4.624 1.343-5.768 3.516l-.016-.001-.036.001a6.5 6.5 0 0 0-7.448-3.296 6.461 6.461 0 0 0-4.485 4.176c-1.502-1.794-3.365-2.699-5.565-2.699-1.987 0-3.845.829-5.229 2.334-1.463 1.589-1.901 3.434-1.949 5.084-1.854-1.606-3.886-2.063-5.476-2.112l-.291-.004c-1.557 0-3.516.372-5.312 1.795-.179-1.437-.703-2.773-1.57-4-1.315-1.863-3.17-3.069-5.337-3.504a8.484 8.484 0 0 0 1.438-4.468c.083-2.271-.662-3.999-1.618-5.281 2.039-.222 3.843-1.162 5.153-2.696z"/>
  </g>
</svg>
