<svg xmlns="http://www.w3.org/2000/svg" width="124" height="124"><path opacity=".4" fill="#036D8B" d="M91.934 61.991c-3.705.112-1.506 6.653-8.773 3.713-2.551-1.032-3.986-2.519-3.701-5.286.076-.748.613-2.907.07-3.496-1.027-1.118-1.99 2.091-2.484 2.773-1.729 2.382-5.914 1.184-7.928-.06-1.822-1.123-1.957-2.823-1.758-4.644a.376.376 0 0 1-.02.046c-.176 1.127-.48 2.079-1.777 2.659-1.348.604-2.654.863-3.987.81-1.359.054-2.667-.206-4.015-.81-1.298-.58-1.601-1.532-1.777-2.659l-.019-.046c.198 1.82.064 3.521-1.758 4.644-2.014 1.243-6.199 2.441-7.928.06-.495-.683-1.456-3.892-2.484-2.773-.542.589-.006 2.748.07 3.496.285 2.767-1.15 4.254-3.7 5.286-7.27 2.94-5.068-3.601-8.774-3.713-2.193-.067-2.219 2.15-3.439 3.437.877 15.326 8.455 28.371 19.146 34.705 1.24 3.898 4.391 6.674 8.092 6.674 2.199 0 4.199-.984 5.728-2.597.281.009.563.026.847.026.271 0 .542-.018.813-.025 1.529 1.611 3.531 2.596 5.73 2.596 3.693 0 6.838-2.766 8.084-6.652C86.9 93.828 94.496 80.772 95.375 65.43c-1.223-1.286-1.248-3.505-3.441-3.439zM50.846 76.137c-1.177 0-2.13-.756-2.13-1.687s.953-1.686 2.13-1.686c1.176 0 2.13.755 2.13 1.686s-.954 1.687-2.13 1.687zm3.118-3.397a.536.536 0 0 1-.097.073c-.472.278-1.319-.126-1.751-.313-1.06-.459-2.311-1.195-3.384-.349-.576.456-.809 1.6-1.743 1.351-.858-.229-1.299-1.73-1.359-2.48-.349-4.32 6.095-6.688 7.936-2.355.263.619.439 1.281.518 1.949.063.539.345 1.695-.12 2.124zm20.6 3.803c-1.229 0-2.223-.99-2.223-2.211s.994-2.211 2.223-2.211 2.223.99 2.223 2.211-.994 2.211-2.223 2.211zm3.778-4.278c-.328 2.093-1.686.241-2.666-.282-.627-.336-1.486-.766-2.225-.604-.59.13-.963.644-1.398 1.019-.484.413-1.434.771-1.848.094-.602-.984.236-3.264.801-4.105 1.281-1.913 3.125-2.059 5.137-1.154 1.947.871 2.507 3.059 2.199 5.032z"/><g fill="#036D8B"><path d="M49.849 66.021c-2.71 0-4.917 2.563-4.917 5.711 0 3.147 2.207 5.709 4.917 5.709 2.713 0 4.917-2.562 4.917-5.709 0-3.148-2.204-5.711-4.917-5.711zm1.125 9.471c-.587 0-1.063-.5-1.063-1.115 0-.617.477-1.116 1.063-1.116s1.064.499 1.064 1.116c.001.615-.477 1.115-1.064 1.115zm2.312-3.156c-.057-1.004-.452-2.04-1.131-2.52-2.803-1.987-4.983.447-5.654 3.039a5.279 5.279 0 0 1-.124-1.123c0-2.375 1.559-4.306 3.473-4.306 1.916 0 3.474 1.931 3.474 4.306a5.951 5.951 0 0 1-.038.604zM79.068 71.732c0-3.148-2.207-5.711-4.918-5.711-2.713 0-4.916 2.563-4.916 5.711 0 3.147 2.203 5.709 4.916 5.709 2.711 0 4.918-2.561 4.918-5.709zm-8.345.657a5.262 5.262 0 0 1-.045-.656c0-2.375 1.557-4.306 3.473-4.306 1.914 0 3.473 1.931 3.473 4.306 0 .273-.023.541-.063.803-.178-1.631-.803-3.1-2.898-3.182-1.708-.069-3.356 1.419-3.94 3.035zm2.134 1.988c0-.617.477-1.116 1.066-1.116.586 0 1.061.499 1.061 1.116 0 .615-.475 1.115-1.061 1.115-.589 0-1.066-.5-1.066-1.115z"/><path d="M97 2H27C13.215 2 2 13.215 2 27v70c0 13.785 11.215 25 25 25h70c13.785 0 25-11.215 25-25V27c0-13.785-11.215-25-25-25zM12 27c0-8.284 6.716-15 15-15h29.562a5.57 5.57 0 0 0-1.005.858 4.503 4.503 0 0 0-.142.168c-1.337-.692-3.014-.807-4.79-.303-2.17.614-3.669 1.72-4.458 3.284a6.28 6.28 0 0 0-.271.623c-1.095-.613-2.073-1.123-3.441-1.123-.601 0-1.246.102-1.971.311-1.579.455-2.773 1.14-3.608 2.072-1.646-.971-3.515-.954-5.688.047-2.607 1.2-3.324 3.006-3.717 4.869-1.615-.631-3.471-.541-5.244.275-4.002 1.843-4.303 5.91-4.28 8.989-.278-.029-.631-.104-.999-.181-.698-.147-1.49-.314-2.348-.314-.96 0-1.826.228-2.599.667V27zm0 17.209c.598.394.765.584.756.812-.012.324-.246.592-.756.98v-1.792zm0 32.816V57.627c.605.271 1.271.42 2.011.42.75 0 1.469-.139 2.104-.261.5-.096.972-.187 1.34-.187.382 0 .506.079.664.304.313.44.194.929-.17 2.021-.713 2.139-1.105 4.521 2.468 6.377-2.084 4.209-4.402 7.691-8.417 10.724zM97 112H27c-.502 0-.992-.041-1.479-.094 3.572-2.123 5.617-5.516 7.272-8.949 1.768-3.667 2.821-7.486 3.13-11.35.014-.168.007-.329.016-.494 2.909 4.535 6.638 8.336 11.047 11.055 1.487 3.996 4.917 6.641 8.691 6.641 2.137 0 4.195-.836 5.864-2.369.116.002.232.003.347.001 1.669 1.532 3.728 2.368 5.865 2.368 3.766 0 7.193-2.637 8.684-6.621 4.654-2.865 8.594-7.039 11.596-12.035 0 .48.008.963.047 1.455.309 3.863 1.361 7.682 3.129 11.35 1.656 3.435 3.703 6.828 7.271 8.949-.488.052-.978.093-1.48.093zM73.293 98.75a4.27 4.27 0 0 1 .621 1.705c-.051.089-.113.172-.145.271-.975 3.04-3.393 5.083-6.018 5.083-1.523 0-3.01-.682-4.184-1.922a1.542 1.542 0 0 0-.176-.149c.021-.087.035-.179.037-.278.066-3.313-.572-6.623.092-9.908.01-.045.008-.086.014-.129 1.484-1.027 2.537-3.427 3.457-4.621.721-.938 1.934-1.28 2.699-2.205.258-.311.361-.578.346-.803-.068-1.08-2.818-1.208-3.934-.761-.078.013-.15.024-.207.038-1.395.31-2.992 1.514-3.76 2.637l-.065.057c-.524-.711-1.204-1.295-2.234-1.637a6.985 6.985 0 0 0-4.313-.033c-1.816.586-2.149 1.389-.461 2.211 1.886.916 3.34 1.923 4.482 3.699.488.756.886 1.384 1.486 1.697-.485 3.239.006 6.45-.056 9.72-.42-.005-.824.16-1.114.465-1.176 1.24-2.661 1.923-4.185 1.923-2.632 0-5.052-2.049-6.021-5.099a1.495 1.495 0 0 0-.22-.411 4.316 4.316 0 0 1 .599-1.549c.818-1.324-1.306-2.526-2.12-1.207-.247.4-.436.819-.597 1.246-5.24-3.635-9.41-9.14-12.066-15.635-.119-.955-.212-1.896-.227-2.854l-.035-2.004c-.067-3.594-.113-7.262.147-10.846.567.306 1.252.512 2.13.512 1.044 0 2.254-.283 3.699-.868 1.2-.485 4.725-1.911 4.672-6.108.947 1.034 2.322 1.577 4.012 1.577 2.146 0 4.35-.89 5.583-1.65.915-.564 1.519-1.24 1.905-1.965.08.041.163.08.249.118 1.537.688 3.033.997 4.627.941 1.555.05 3.063-.254 4.6-.941.086-.038.168-.077.248-.118.387.725.99 1.399 1.906 1.964 1.234.762 3.436 1.651 5.584 1.651 1.688 0 3.063-.543 4.012-1.577-.055 4.197 3.471 5.623 4.672 6.108 1.445.585 2.654.868 3.697.868.877 0 1.561-.205 2.127-.509.262 3.589.219 7.261.152 10.86l-.035 1.986a19.98 19.98 0 0 1-.041.919c-2.602 7.377-7.1 13.651-12.902 17.638a7.117 7.117 0 0 0-.621-1.314c-.813-1.319-2.936-.117-2.118 1.207zM112 77.025c-4.014-3.034-6.332-6.516-8.416-10.725 3.572-1.855 3.18-4.238 2.467-6.377-.365-1.092-.482-1.58-.17-2.021.158-.224.281-.303.664-.303.369 0 .842.091 1.342.187.633.122 1.352.261 2.102.261.74 0 1.406-.148 2.012-.42v19.398zm0-31.023c-.512-.39-.746-.657-.758-.981-.008-.227.158-.418.758-.812v1.793zm0-5.397c-.293.247-.658.478-1.088.741-1.158.711-2.744 1.686-2.668 3.783.072 1.972 1.557 3.009 2.641 3.767.449.313.822.584 1.115.868v3.652c-.76 1.608-1.494 1.629-2.012 1.63-.463 0-.984-.101-1.535-.206-.617-.119-1.254-.241-1.908-.241-1.33 0-2.377.528-3.113 1.571-1.221 1.726-.646 3.446-.227 4.702.553 1.66.76 2.281-2.545 3.412-1.035.354-1.893.533-2.549.533-1.061 0-1.32-.399-1.916-1.556-.566-1.104-1.426-2.772-3.729-2.772l-.143.002c-2.318.07-3.232 1.789-3.836 2.926-.654 1.232-.912 1.545-1.756 1.545-.641 0-1.508-.219-2.572-.649-2.523-1.021-2.932-2.188-2.771-3.743.016-.139.049-.333.086-.558.293-1.76.449-3.179-.402-4.105-.547-.595-1.145-.72-1.551-.72-1.559 0-2.324 1.654-2.939 2.983-.127.271-.23.515-.313.643-.361.498-1.008.75-1.918.75-1.422 0-3.037-.604-4.01-1.204-.982-.606-1.25-1.415-1.053-3.204a1.49 1.49 0 0 0-1.137-1.609 1.506 1.506 0 0 0-1.742.874 1.528 1.528 0 0 0-.115.387c-.15.976-.32 1.26-.906 1.521-1.127.504-2.197.719-3.315.68a2.4 2.4 0 0 0-.12 0c-1.135.045-2.216-.176-3.343-.68-.585-.262-.755-.546-.908-1.522a1.893 1.893 0 0 0-.126-.415 1.5 1.5 0 0 0-2.865.763c.195 1.79-.071 2.599-1.055 3.205-.971.6-2.587 1.204-4.008 1.204-.912 0-1.557-.252-1.909-.736-.092-.143-.196-.387-.322-.658-.615-1.328-1.381-2.981-2.939-2.981-.405 0-1.003.125-1.549.719-.854.928-.697 2.347-.404 4.106.038.225.071.419.086.56.16 1.553-.247 2.721-2.771 3.741-1.065.431-1.932.649-2.574.649-.843 0-1.101-.313-1.755-1.545-.604-1.137-1.517-2.855-3.837-2.927l-.142-.002c-2.303 0-3.161 1.669-3.729 2.772-.595 1.157-.854 1.557-1.916 1.557-.655 0-1.514-.18-2.55-.534-3.305-1.13-3.098-1.751-2.544-3.41.42-1.257.994-2.978-.226-4.702-.737-1.044-1.784-1.572-3.114-1.572-.654 0-1.291.122-1.907.241-.551.105-1.072.206-1.536.206-.474 0-1.246-.021-2.011-1.634v-3.648c.293-.284.665-.555 1.113-.868 1.084-.758 2.569-1.795 2.641-3.767.077-2.098-1.509-3.072-2.668-3.783-.43-.264-.794-.494-1.086-.741v-3.891c.993-2.135 2.067-2.139 2.599-2.139.545 0 1.147.127 1.729.25.604.127 1.229.259 1.839.259.973 0 1.752-.336 2.316-.997.078-.092.146-.185.212-.281.177-.257.269-.563.263-.875-.063-3.35.084-6.002 2.522-7.125 1.503-.69 2.922-.519 4.031.53a1.502 1.502 0 0 0 2.501-.795c.076-.377.14-.743.202-1.097.374-2.134.591-3.03 2.226-3.783.696-.319 1.312-.482 1.829-.482.692 0 1.242.28 1.899.967a1.499 1.499 0 0 0 2.483-.497c.238-.619.757-1.399 2.66-1.948 1.353-.389 1.737-.228 3.294.647l.219.122c.655.367 1.165.53 1.651.53 1.477 0 1.902-1.329 2.084-1.896.079-.246.16-.499.284-.745.396-.784 1.269-1.373 2.596-1.749 1.509-.426 2.688-.175 3.435.804a1.502 1.502 0 0 0 2.69-1.009c-.009-.134.012-.304.236-.558.893-1.008 3.408-1.656 4.878-1.737 1.307-.074 2.563.294 3.203.943.365.369.537.832.529 1.416a1.5 1.5 0 1 0 2.611 1.027c.895-.986 2.131-1.284 3.535-.886 1.328.375 2.201.964 2.598 1.75.123.243.203.496.281.741.182.568.607 1.898 2.086 1.898.486 0 .996-.163 1.65-.53l.217-.122c1.559-.875 1.945-1.036 3.295-.647 1.904.549 2.422 1.329 2.66 1.947a1.501 1.501 0 0 0 2.484.498c.656-.687 1.207-.967 1.9-.967.518 0 1.133.163 1.828.483 1.635.752 1.852 1.647 2.225 3.78.063.354.127.721.203 1.099a1.499 1.499 0 0 0 2.5.795c1.111-1.05 2.531-1.221 4.031-.53 2.441 1.124 2.586 3.775 2.523 7.124a1.5 1.5 0 0 0 .262.876c.066.097.135.189.213.28.564.662 1.344.998 2.316.998.609 0 1.234-.132 1.838-.259.582-.123 1.186-.25 1.73-.25.531 0 1.605.004 2.6 2.137v3.893zm0-8.363a5.185 5.185 0 0 0-2.6-.666c-.857 0-1.65.167-2.348.314-.369.077-.721.151-.998.181.021-3.079-.277-7.145-4.281-8.989-1.773-.816-3.629-.906-5.244-.275-.393-1.863-1.109-3.669-3.717-4.869-2.174-1.002-4.039-1.018-5.688-.048-.834-.932-2.029-1.616-3.609-2.071-.725-.209-1.369-.311-1.971-.311-1.367 0-2.346.51-3.439 1.123a6.393 6.393 0 0 0-.271-.621c-.789-1.565-2.289-2.671-4.457-3.285-1.619-.458-3.221-.356-4.572.268a4.79 4.79 0 0 0-.74-.992H97c8.285 0 15 6.716 15 15v5.241z"/><path d="M110.168 37.517a1.497 1.497 0 0 0-1.641-.825l-.447.092c-.67.142-1.43.301-2.248.302-1.539 0-2.902-.603-3.838-1.698a5.239 5.239 0 0 1-.34-.448 3.473 3.473 0 0 1-.613-2.045c.063-3.251-.197-4.192-.699-4.792l-.004.002a1.873 1.873 0 0 0-.658-.48 2.782 2.782 0 0 0-.395-.15 1.503 1.503 0 0 0-1.447.339 3.536 3.536 0 0 1-3.441.771 3.496 3.496 0 0 1-2.371-2.646c-.08-.395-.146-.775-.221-1.197-.074-.425-.17-.948-.252-1.271a1.505 1.505 0 0 0-.914-1.026 1.5 1.5 0 0 0-1.559.275 3.519 3.519 0 0 1-3.023.823 3.515 3.515 0 0 1-2.477-1.938 1.494 1.494 0 0 0-.746-.73 5.32 5.32 0 0 0-.705-.25 1.503 1.503 0 0 0-1.117.116c-.182.097-.414.227-.641.353l-.221.125c-.602.336-1.527.784-2.629.784-1.096 0-3.072-.427-3.988-3.285a1.5 1.5 0 0 0-.81-.926 4.726 4.726 0 0 0-.894-.302 1.517 1.517 0 0 0-1.393.428c-.963.999-2.512 1.339-3.805.831a3.497 3.497 0 0 1-2.131-2.478 1.504 1.504 0 0 0-1.465-1.167l-.242.005c-.88.048-1.893.324-2.493.546-.43.158-.763.505-.905.939a3.485 3.485 0 0 1-2.097 2.188c-1.295.484-2.812.134-3.758-.855a1.498 1.498 0 0 0-1.448-.418c-.015.004-.091.023-.105.028-.33.093-.557.185-.706.252a1.536 1.536 0 0 0-.815.927c-.915 2.86-2.891 3.287-3.987 3.287-1.086 0-1.976-.419-2.627-.784l-.234-.131c-.207-.116-.443-.249-.63-.348a1.494 1.494 0 0 0-1.122-.114 5.48 5.48 0 0 0-.705.252 1.494 1.494 0 0 0-.741.729 3.518 3.518 0 0 1-2.477 1.938 3.526 3.526 0 0 1-3.021-.824 1.5 1.5 0 0 0-1.628-.245c-.416.184-.731.55-.847 1-.085.331-.183.877-.261 1.319-.064.37-.133.752-.211 1.144-.247 1.229-1.165 2.235-2.396 2.627-1.166.369-2.512.071-3.434-.763a1.499 1.499 0 0 0-1.437-.325 3.11 3.11 0 0 0-.388.147 2.186 2.186 0 0 0-.423.25 1.537 1.537 0 0 0-.24.23c-.499.6-.759 1.541-.698 4.792a3.474 3.474 0 0 1-.613 2.043 4.893 4.893 0 0 1-.34.448c-.935 1.096-2.298 1.699-3.838 1.699-.82 0-1.58-.16-2.299-.312l-.396-.082a1.501 1.501 0 0 0-1.644.832c-.05.104-.165.379-.169.388a1.5 1.5 0 0 0 .611 1.816c1.781 1.1 3.588 2.609 3.482 5.476-.091 2.496-1.641 3.953-2.799 4.832a1.5 1.5 0 0 0 1.131 2.677c.51-.077.944-.113 1.368-.113 1.96 0 3.646.857 4.746 2.416 1.114 1.575 1.37 3.391.783 5.55-.208.764.255 1.571 1.003 1.827.213.072.4.131.566.18a1.501 1.501 0 0 0 1.732-.717c1.246-2.265 2.963-3.366 5.247-3.366l.202.004c2.236.067 3.949 1.188 5.234 3.425a1.5 1.5 0 0 0 1.831.654l.291-.113c.326-.132.563-.247.73-.338.563-.305.871-.932.768-1.563l-.037-.218c-.271-1.62-.679-4.068.903-5.788.811-.88 1.884-1.365 3.022-1.365 1.879 0 3.247 1.069 4.435 3.466a1.5 1.5 0 0 0 1.663.8 7.45 7.45 0 0 0 1.253-.401 1.5 1.5 0 0 0 .911-1.52l-.017-.162a3.48 3.48 0 0 1 2.578-3.76c1.643-.438 3.428.426 4.107 1.979l.051.121c.027.067.054.136.077.206.169.507.595.886 1.118.994.334.069.665.092 1.046.103l.312-.006.344.007c.333 0 .658-.034.99-.104.52-.108.943-.483 1.115-.986.031-.094.066-.186.131-.336.68-1.552 2.469-2.414 4.107-1.978a3.472 3.472 0 0 1 2.58 3.739l-.018.18a1.494 1.494 0 0 0 .916 1.523c.41.172.846.309 1.26.396a1.49 1.49 0 0 0 1.652-.801c1.188-2.393 2.555-3.46 4.432-3.46 1.139 0 2.211.484 3.021 1.364 1.584 1.721 1.176 4.169.904 5.795l-.033.198c-.111.636.197 1.27.764 1.576.17.091.404.206.727.336l.293.115a1.504 1.504 0 0 0 1.834-.655c1.283-2.236 2.996-3.356 5.23-3.424l.205-.003c2.314 0 3.982 1.069 5.248 3.365a1.5 1.5 0 0 0 1.732.717 10.914 10.914 0 0 0 .625-.2 1.499 1.499 0 0 0 .943-1.807c-.586-2.159-.33-3.975.781-5.548 1.102-1.56 2.787-2.418 4.748-2.418.424 0 .857.036 1.367.113.68.106 1.34-.267 1.607-.898a1.504 1.504 0 0 0-.475-1.779c-1.158-.879-2.709-2.337-2.801-4.834-.104-2.865 1.703-4.375 3.484-5.475.633-.39.869-1.221.576-1.903a3.36 3.36 0 0 0-.129-.307zm-5.482 12.263c-2.168.436-4.021 1.643-5.338 3.506-.867 1.226-1.391 2.563-1.57 4-1.795-1.424-3.754-1.796-5.311-1.796l-.295.004c-1.588.049-3.619.505-5.473 2.11-.047-1.649-.486-3.494-1.949-5.084-1.383-1.504-3.24-2.333-5.229-2.333-2.199 0-4.064.906-5.564 2.698a6.469 6.469 0 0 0-4.484-4.174 6.503 6.503 0 0 0-1.676-.221c-2.42 0-4.625 1.343-5.768 3.516h-.052a6.502 6.502 0 0 0-7.448-3.295 6.458 6.458 0 0 0-4.485 4.175c-1.502-1.793-3.365-2.699-5.565-2.699-1.987 0-3.845.829-5.229 2.334-1.463 1.59-1.901 3.435-1.949 5.084-1.854-1.606-3.886-2.063-5.476-2.111l-.291-.005c-1.557 0-3.516.372-5.312 1.796-.179-1.438-.703-2.774-1.57-4.001-1.315-1.862-3.17-3.069-5.337-3.504a8.481 8.481 0 0 0 1.438-4.468c.083-2.271-.662-3.999-1.618-5.28 2.039-.225 3.844-1.163 5.153-2.697.195-.229.368-.46.534-.701a6.464 6.464 0 0 0 1.137-3.795 33.248 33.248 0 0 1 .004-1.643 6.579 6.579 0 0 0 4.525.225c2.27-.721 3.967-2.596 4.429-4.896.022-.108.043-.217.063-.325a6.565 6.565 0 0 0 3.552.284 6.531 6.531 0 0 0 3.993-2.572c.898.49 2.246 1.09 3.954 1.09 1.073 0 4.414-.309 6.253-3.921a6.583 6.583 0 0 0 5.621.509 6.465 6.465 0 0 0 3.594-3.309c.028-.008.057-.015.085-.021a6.498 6.498 0 0 0 3.502 3.28 6.595 6.595 0 0 0 5.725-.479c1.838 3.631 5.189 3.94 6.266 3.94 1.709 0 3.053-.6 3.951-1.089a6.533 6.533 0 0 0 3.994 2.57 6.528 6.528 0 0 0 3.551-.283c.021.108.041.218.064.328a6.5 6.5 0 0 0 4.402 4.914 6.571 6.571 0 0 0 4.553-.229c.012.415.016.945.002 1.624a6.461 6.461 0 0 0 1.141 3.8c.166.241.336.471.533.699 1.309 1.534 3.113 2.472 5.152 2.696-.957 1.281-1.703 3.008-1.621 5.278a8.478 8.478 0 0 0 1.439 4.471z"/></g><path opacity=".4" fill="#036D8B" d="M37.305 58.752a.997.997 0 0 1-.655-.244c-1.365-1.183-2.997-1.812-4.851-1.868l-.275-.004c-1.775 0-3.354.531-4.676 1.579a.997.997 0 0 1-1.613-.66 7.736 7.736 0 0 0-1.395-3.546c-1.16-1.643-2.791-2.715-4.717-3.102a1 1 0 0 1-.636-1.536 7.514 7.514 0 0 0 1.27-3.949c.064-1.734-.414-3.298-1.42-4.646a1 1 0 0 1 .693-1.592c1.801-.198 3.357-1.012 4.502-2.353.172-.201.324-.404.47-.617.651-.95.983-2.061.962-3.211a35.204 35.204 0 0 1 .004-1.691 1.004 1.004 0 0 1 1-.97c.133 0 .267.026.393.081a5.619 5.619 0 0 0 2.188.441c.567 0 1.12-.084 1.642-.25 1.925-.612 3.362-2.198 3.752-4.141l.057-.299a1.013 1.013 0 0 1 1.335-.764 5.58 5.58 0 0 0 3.007.241 5.5 5.5 0 0 0 3.378-2.178 1 1 0 0 1 1.29-.292c.763.416 1.952.968 3.476.968 1.096 0 3.812-.328 5.361-3.375a1.004 1.004 0 0 1 .891-.546c.179 0 .356.048.513.142a5.55 5.55 0 0 0 2.846.773 5.455 5.455 0 0 0 4.951-3.141c.127-.27.367-.468.655-.543a4.94 4.94 0 0 0 .101-.025 1 1 0 0 1 1.139.547 5.478 5.478 0 0 0 2.965 2.775 5.411 5.411 0 0 0 1.99.371 5.558 5.558 0 0 0 2.854-.777 1.016 1.016 0 0 1 .793-.102.996.996 0 0 1 .613.509c1.551 3.062 4.273 3.392 5.373 3.392 1.523 0 2.711-.552 3.473-.967a1.003 1.003 0 0 1 1.29.291 5.5 5.5 0 0 0 6.385 1.937 1.006 1.006 0 0 1 .842.066 1 1 0 0 1 .49.686l.061.314a5.503 5.503 0 0 0 3.727 4.16c.531.169 1.09.255 1.662.255.758 0 1.516-.155 2.191-.448a.996.996 0 0 1 .933.075.998.998 0 0 1 .463.814c.012.427.016.974.002 1.672a5.485 5.485 0 0 0 .965 3.215c.145.21.295.412.467.613 1.146 1.343 2.703 2.155 4.504 2.354a1.002 1.002 0 0 1 .692 1.592c-1.006 1.349-1.484 2.911-1.422 4.645a7.51 7.51 0 0 0 1.271 3.951 1 1 0 0 1-.635 1.536c-1.928.387-3.559 1.46-4.719 3.103a7.747 7.747 0 0 0-1.395 3.546 1.002 1.002 0 0 1-.992.877.999.999 0 0 1-.621-.217c-1.322-1.048-2.9-1.579-4.689-1.579l-.279.004c-1.838.057-3.469.685-4.834 1.866a.993.993 0 0 1-1.056.16 1.003 1.003 0 0 1-.598-.888c-.051-1.808-.602-3.258-1.686-4.435-1.191-1.297-2.787-2.011-4.492-2.011-1.91 0-3.48.766-4.799 2.341a.997.997 0 0 1-.952.34 1 1 0 0 1-.762-.662 5.48 5.48 0 0 0-3.795-3.529 5.477 5.477 0 0 0-1.418-.187c-2.045 0-3.916 1.143-4.883 2.981a1.002 1.002 0 0 1-.885.534h-.031c-.363-.012-.742-.219-.909-.541a5.478 5.478 0 0 0-6.301-2.788 5.475 5.475 0 0 0-3.797 3.529 1 1 0 0 1-1.715.323c-1.319-1.576-2.889-2.342-4.799-2.342-1.704 0-3.3.715-4.493 2.012-1.082 1.175-1.634 2.626-1.686 4.436a1.003 1.003 0 0 1-.598.887 1.03 1.03 0 0 1-.403.082z"/><path fill="#FFF" d="M117.402 88.45c-1.867-3.007-4.334-5.623-6.885-8.082-3.783-3.647-6.385-6.688-8.602-11.481-.424-.919-2.76-.227-2.369.619 1.332 2.882 2.643 5.557 4.729 8.008 2.385 2.801 5.473 5.047 7.908 7.836 4.053 4.631 9.129 12.474 3.939 17.972-.986 1.045 1.314 1.208 1.945.538 4.466-4.731 2.404-10.47-.665-15.41zM31.077 69.836c-1.718 5.986-1.047 12.357-1.434 18.494-.503 7.969-3.409 13.447-11.75 15.477-1.46.354-1.059 1.781.394 1.428 7.323-1.78 11.733-5.578 13.236-12.932 1.525-7.477-.181-15.284 1.945-22.684.291-1.009-2.126-.707-2.391.217z"/></svg>