<svg xmlns="http://www.w3.org/2000/svg" width="124" height="124"><g fill="#C51F30"><path d="M97 2H27C13.215 2 2 13.214 2 27v70c0 13.785 11.215 25 25 25h70c13.785 0 25-11.215 25-25V27c0-13.786-11.215-25-25-25zm15 95c0 8.284-6.715 15-15 15H27c-8.284 0-15-6.716-15-15V27c0-8.284 6.716-15 15-15h70c8.285 0 15 6.716 15 15v70z"/><path d="M37.7 24.33c-3.28-.437-7.01-1.485-10.308-.898-2.782.495-5.597.774-8.41 1.028-2.541.229-7.23-.377-9.129 1.697-1.345 1.469-3.03 3.031-3.167 5.148-.118 1.816.467 3.587.955 5.311.451 1.595.659 3.239 1.111 4.83.681 2.397 1.355 5.218 2.701 7.329.984 1.545 2.048 2.908 2.813 4.594 1.094 2.41 2.247 4.47 3.755 6.638 1.28 1.841 2.116 4.729 4.604 5.268 2.797.605 2.569-4.377 2.801-5.934.266-1.778.226-3.562.579-5.344.327-1.649.167-3.456.167-5.15 0-2.724-1.907-5.636-3.667-7.621-.746-.843-1.492-1.643-2.395-2.233-2.915-1.908-5.313-4.58-8.091-6.747.788-.076 1.655.521 2.392.683 4.11.905 8.35 1.875 12.675 1.917 2.293.022 4.773.176 6.99-.244 1.575-.298 3.675-.74 5.095-1.483 1.313-.686 1.871-2.409 2.065-3.787.163-1.15.555-2.487.134-3.617-.603-1.625-2.276-1.2-3.67-1.385zM85.197 24.33c3.281-.437 7.01-1.485 10.309-.898 2.781.495 5.596.774 8.41 1.028 2.541.229 7.23-.377 9.129 1.697 1.344 1.469 3.029 3.031 3.166 5.148.119 1.816-.467 3.587-.955 5.311-.451 1.595-.658 3.239-1.111 4.83-.68 2.397-1.355 5.218-2.701 7.329-.984 1.545-2.047 2.908-2.813 4.594-1.094 2.41-2.246 4.47-3.754 6.638-1.281 1.841-2.117 4.729-4.604 5.268-2.797.605-2.57-4.377-2.801-5.934-.266-1.778-.227-3.562-.58-5.344-.326-1.649-.166-3.456-.166-5.15 0-2.724 1.906-5.636 3.666-7.621.746-.843 1.492-1.643 2.395-2.233 2.916-1.908 5.314-4.58 8.092-6.747-.789-.076-1.656.521-2.393.683-4.109.905-8.35 1.875-12.674 1.917-2.293.022-4.773.176-6.99-.244-1.576-.298-3.676-.74-5.096-1.483-1.313-.686-1.871-2.409-2.064-3.787-.164-1.15-.555-2.487-.135-3.617.604-1.625 2.278-1.2 3.67-1.385zM57.535 71.896h-7.602c-2.84 0-5.535 1.394-7.211 3.728-1.468 2.046-1.666 5.786-1.666 9.175a6.873 6.873 0 0 0 6.865 6.866c.822 0 1.773-.159 2.7-.463.86 1.362 2.122 2.654 3.723 2.923 1.867.312 2.959-1.093 3.486-2.659a8.41 8.41 0 0 0 1.716.199c2.996 0 5.107-1.464 6.107-4.232.76-2.105.76-4.606.76-6.657.001-4.896-3.981-8.88-8.878-8.88zm-3.239 20.14c-.754-.257-1.365-.957-1.836-1.679.344-.212.671-.441.959-.704h.632c.535.488 1.188.889 1.887 1.202-.242.81-.661 1.513-1.642 1.181zm8.536-5.621c-.568 1.577-1.552 2.25-3.285 2.25-1.366 0-3.055-.664-3.686-1.451a1.503 1.503 0 0 0-1.17-.561h-1.912c-.454 0-.885.206-1.169.561-.633.786-2.321 1.451-3.688 1.451a3.87 3.87 0 0 1-3.865-3.866c0-3.907.371-6.406 1.104-7.426 1.113-1.551 2.897-2.477 4.773-2.477h7.602c3.241 0 5.879 2.638 5.879 5.92-.001 1.777-.001 3.987-.583 5.599zM72.416 51.522c-1.23.393-.705 2.336.533 1.939 1.922-.614 3.711 1.402 4.564 2.892.646 1.124 2.385.11 1.738-1.016-1.313-2.29-3.997-4.725-6.835-3.815zM72.391 57.646c-2.469.564-3.99 3.121-3.398 5.709.592 2.587 3.074 4.228 5.543 3.661 2.469-.563 3.99-3.12 3.398-5.707-.592-2.589-3.075-4.229-5.543-3.663zm1.632 7.589c-1.297 0-1.297-2.013 0-2.013 1.299.001 1.299 2.013 0 2.013zM44.195 67.016c2.469.566 4.951-1.074 5.543-3.661.592-2.588-.93-5.145-3.398-5.709-2.47-.565-4.951 1.074-5.543 3.663-.593 2.587.93 5.144 3.398 5.707zm1.156-4.631c1.299 0 1.299 2.013 0 2.013-1.297-.001-1.297-2.013 0-2.013z"/><path d="M106.059 22.265H85.01c-6.604 0-12.063 3.813-12.916 8.738a53.54 53.54 0 0 0-8.688-.942c.504-.916.801-1.927.67-2.985-.004-.037-.014-.067-.018-.104.596-.214 1.119-.488 1.51-.827 2.41-2.1 2.738-7.02-.438-8.545-.857-.412-2.234.828-1.105 1.371 1.779.856 1.563 3.417 1.064 4.966-.26.805-.844 1.244-1.545 1.503-.482-.774-1.258-1.243-2.343-1.722-1.04-.459-2.853-.853-3.84-.033-.868.723-1.222 2.236-.102 2.984 1.084.723 2.996.964 4.786.759.076.847-.201 1.778-.692 2.614-3.241.04-6.399.373-9.446.961-.854-4.925-6.314-8.738-12.919-8.738H17.94c-7.194 0-13.048 4.521-13.048 10.081 0 5.204 2.167 10.076 4.263 14.787l.647 1.461c1.974 4.497 4.155 9.141 7.233 13.21a33.176 33.176 0 0 0-.803 7.2c0 21.493 20.531 38.979 45.767 38.979 25.236 0 45.768-17.486 45.768-38.979 0-2.466-.273-4.877-.791-7.216 3.072-4.064 5.25-8.702 7.223-13.194l.648-1.466c2.096-4.71 4.26-9.58 4.26-14.782 0-5.559-5.853-10.081-13.048-10.081zm-44.826 3.603c-.659.073-1.343.066-1.987-.102-.661-.152-.788-.49-.381-1.01.426.056.838.167 1.232.334.529.191.935.455 1.238.766a1.881 1.881 0 0 0-.102.012zm19.167.193c.037 4.868 1.18 8.35 6.74 9.081 3.756.491 7.727.379 11.504.257 3.592-.115 6.83-1.231 10.207-1.983-4.137 3.519-9.137 6.037-11.637 11.145-1.334 2.722-1.104 6.136-1.061 9.067.049 3.706.713 7.404 1.371 11.049a.856.856 0 0 0 .01.491c.068.205.135.409.197.617.027.094.051.188.072.284-.703.282-1.451.464-2.252.464v1.5l-.014-1.5c-4.785-.013-8.355-5.485-10.275-8.427-3.531-5.409-5.965-11.171-7.881-16.094-1.244-3.196-2.42-6.216-2.42-9.666.002-2.733 2.215-5.105 5.439-6.285zm-31.362 6.285c0 3.447-1.176 6.468-2.42 9.666-1.918 4.926-4.354 10.689-7.882 16.094-1.92 2.94-5.492 8.414-10.275 8.427l-.014 1.5v-1.5c-1.113 0-2.125-.336-3.055-.84.054-.176.108-.351.167-.525a.874.874 0 0 0 .011-.491c.656-3.645 1.32-7.343 1.371-11.049.04-2.932.272-6.346-1.063-9.067-2.501-5.107-7.499-7.626-11.637-11.145 3.377.752 6.616 1.868 10.207 1.983 3.778.122 7.75.234 11.504-.257 5.673-.744 6.749-4.351 6.744-9.371 3.71 1.042 6.342 3.593 6.342 6.575zM12.549 47.388l-.653-1.475c-1.968-4.425-4.003-9-4.003-13.567 0-3.905 4.508-7.081 10.048-7.081H38.99c.599 0 1.183.044 1.753.115-.025.09-.057.175-.057.282.013 3.003.229 6.038-3.285 7.08-2.694.798-5.358.534-8.116.635-3.375.123-7.369.344-10.631-.635-2.484-.745-4.893-1.576-7.478-1.881-.944-.11-1.233 1.138-.712 1.719 3.873 4.306 10.59 6.689 13.202 12.022 2.824 5.765 1.039 13.711-.089 19.849a22.19 22.19 0 0 1-1.27-1.157c-4.493-4.398-7.284-10.27-9.758-15.906zM62 104.983c-23.582 0-42.767-16.141-42.767-35.979 0-1.445.114-2.868.315-4.269.223.232.429.476.66.702 1.947 1.906 4.643 4.095 8.238 4.095h.021c6.404-.018 10.711-6.615 12.78-9.786a66.797 66.797 0 0 0 3.225-5.543 9.782 9.782 0 0 1 1.884-.202c1.298-.012 1.298-2.024 0-2.012-.263.002-.523.016-.784.034 1.508-3.106 2.761-6.147 3.841-8.924 1.103-2.833 2.23-5.75 2.537-9.04 3.228-.659 6.585-1.034 10.05-1.034s6.822.372 10.051 1.03c.307 3.294 1.434 6.212 2.537 9.044 1.855 4.771 4.461 10.973 8.164 16.646 2.068 3.171 6.375 9.77 12.781 9.787h.02c3.596 0 6.291-2.188 8.236-4.094.23-.226.438-.469.66-.7.201 1.399.318 2.82.318 4.266.001 19.839-19.185 35.979-42.767 35.979zm50.107-59.075l-.654 1.479c-2.477 5.639-5.27 11.511-9.762 15.907-.631.616-1.316 1.235-2.063 1.768-1.113-6.212-3.119-14.503-.201-20.46 2.613-5.333 9.33-7.717 13.203-12.022.521-.581.23-1.829-.711-1.719-2.588.305-4.996 1.136-7.479 1.881-3.262.979-7.258.758-10.631.635-2.758-.101-5.424.163-8.117-.635-3.514-1.042-3.299-4.077-3.285-7.08 0-.055-.021-.093-.029-.143.84-.161 1.721-.255 2.631-.255h21.049c5.541 0 10.049 3.176 10.049 7.081 0 4.566-2.033 9.14-4 13.563z"/><path d="M50.082 80.731c-.589 1.517-1.473 3.007-2.892 3.87-1.106.672-.096 2.413 1.016 1.737 1.894-1.15 3.032-3.052 3.816-5.073.47-1.211-1.476-1.73-1.94-.534zM60.95 83.483c-1.328-.771-2.562-1.715-3.44-2.991-.729-1.063-2.475-.058-1.736 1.014 1.077 1.568 2.524 2.762 4.161 3.715 1.123.654 2.135-1.085 1.015-1.738z"/><path opacity=".4" d="M107.051 30.986c-2.477.123-4.992.333-7.475.359-3.611.038-6.268.396-9.65-1.324-1.859-.945-3.518-2.223-5.268-3.343-1.275-.816-2.834-2.121-4.391-2.249-1.666-.137-3.178 1.604-4.221 2.711-.893.948-1.678 2.055-2.381 3.145-.498.774-.799 1.393-1.828 1.392-2.07-.003-4.113-.542-6.186-.329-2 .205-4.081-.158-6.096-.089-2.394.083-5.007.094-7.352.604-.784.17-1.338.503-1.884-.263-.421-.589-.53-1.294-.846-1.931-.402-.809-1.342-1.867-2.482-2.743-1.778-1.364-4.046-2.286-5.531-1.133-1.957 1.52-.43 5.369-3.792 5.552-2.838.155-5.649.248-8.496.248-3.234 0-6.438-.583-9.696-.583-1.69 0-3.805-.909-5.438-.381-1.257.406-1.671 1.705-1.714 2.905-.051 1.414.796 2.233 1.849 3.038 1.512 1.156 3.295 2.29 4.311 3.931 1.695 2.738 2.783 5.804 3.359 8.965.534 2.935 1.066 6.357.015 9.225-.334.91-1.082 1.754-1.64 2.547-.806 1.146-1.56 2.169-1.733 3.594-.616 5.051-.172 10.729 1.973 15.396 1.06 2.308 1.766 4.799 3.182 6.931 1.229 1.85 2.792 3.437 4.294 5.062 1.404 1.52 2.652 3.209 4.208 4.58 4.813 4.242 11.183 7.153 17.44 8.341 2.033.386 4.005 1.031 6.034 1.434 2.279.452 4.612.117 6.913.303 4.309.347 8.178-.218 12.316-1.446 2.078-.617 3.77-.94 5.652-2.089 1.521-.929 3.039-1.876 4.625-2.69 1.408-.723 2.969-1.175 4.297-2.048 1.242-.816 2.186-2.018 3.277-3.014a116.457 116.457 0 0 0 3.576-3.382c1.037-1.031 2.154-2.001 3.068-3.149 2.777-3.493 4.326-8.507 5.4-12.763.717-2.837 1.535-5.843.84-8.769-.51-2.14-1.287-4.21-1.703-6.372-.414-2.146-.336-4.351-.893-6.476-.902-3.442-.146-7.069 1.234-10.265.807-1.862.521-4.185 1.635-5.902 1.758-2.717 5.973-3.691 6.809-7.003-1.453-.983-3.978-.608-5.611-.527zM45.547 65.701c-1.312 0-2.375-1.144-2.375-2.554s1.063-2.554 2.375-2.554 2.375 1.144 2.375 2.554-1.064 2.554-2.375 2.554zm10.73 26.892c-1.411 1.862-3.898-.328-4.706-1.516-1.124-1.652.569-3.02 2.274-2.812a3.543 3.543 0 0 1 2.443 1.464c.584.844.705 1.917-.011 2.864zM73.68 66.177c-1.035 0-1.875-.935-1.875-2.088S72.645 62 73.68 62s1.875.936 1.875 2.089-.84 2.088-1.875 2.088z"/></g></svg>