<svg xmlns="http://www.w3.org/2000/svg" width="124" height="124"><g fill="#088C44"><path d="M97 2H27C13.215 2 2 13.215 2 27v70c0 13.785 11.215 25 25 25h70c13.785 0 25-11.215 25-25V27c0-13.785-11.215-25-25-25zm-32.719 99.743a.44.44 0 0 0-.117-.288c-3.737-4.258-.949-10.207-.676-15.241 4.281-.345 7.578-2.452 7.578-5.007 0-2.797-3.945-5.063-8.812-5.063-4.867 0-8.813 2.266-8.813 5.063 0 2.473 3.087 4.527 7.167 4.971-.127 5.14-2.893 11.018.237 15.594-8.354-.336-16.301-3.586-22.575-9.299-2.483-1.982-4.964-4.244-7.804-7.118-3.775-3.82-9.258-6.953-14.095-9.718-.644-.367-1.273-.727-1.881-1.078-.656-.38-1.653-.98-2.397-1.123-.033-.007-.063-.011-.094-.016V56.639a27.988 27.988 0 0 0 2.342-.393c2.461 2.066 4.981 4.16 7.54 6.14 3.133 2.427 6.363 4.542 9.063 7.479 1.575 1.713 3.565 3.071 5.776 3.813 5.385 1.805 9.436-.963 14.182-3.045a18.258 18.258 0 0 1 3.7-1.154c5.192-1.059 10.777-1.236 15.875.322 4.035 1.232 7.795 4.238 12.037 4.688 3.133.332 5.826-.934 8.201-2.872 2.52-2.057 4.842-4.207 7.445-6.176a93.312 93.312 0 0 1 5.008-3.539c1.861-1.225 3.955-2.11 5.865-3.26.615-.37 1.914-1.191 2.658-1.978.102.008.205.012.307.016v17.254a5.825 5.825 0 0 0-1.217.285 4.63 4.63 0 0 0-.764.339c-.609.352-1.238.711-1.881 1.078-4.838 2.764-10.32 5.896-14.098 9.717-2.678 2.71-5.027 4.865-7.393 6.783-.027.022-.053.046-.08.07a35.377 35.377 0 0 1-22.284 9.537zm-2.313-21.407c-1.385.022-2.68.357-3.998.758-.314.096-1.463.332-1.602-.187-.144-.533.978-.866 1.295-.962 1.796-.546 3.617-.963 5.502-.993.346-.006 1.178.13.73.646-.432.5-1.293.728-1.927.738zm.317-49.639c4.807 0 9.471.943 13.862 2.804.426.181.908.154 1.311-.068l19.934-11.035.043.392.773 6.721c.318 2.77.637 5.539.967 8.307.154 1.3.232 2.632.316 4.041.162 2.722.328 5.536 1.078 8.181.379 1.331 1.141 2.364 2.123 3.188-.326.102-.645.252-.986.298-1.773.239-4.303-.865-5.773-1.78-2.957-1.839-5.967-4.014-9.256-5.212-7.479-2.723-9.775 2.702-16.348 4.306-4.203 1.024-8.608.322-12.861.103-5.321-.275-8.417-4.755-13.327-5.24a16.311 16.311 0 0 0-8.937 1.621c-1.701.853-2.854 2.423-4.412 3.469-1.536 1.029-3.395 1.607-5.172 2.071-1.408.367-2.839.128-4.266.012 1.672-1.855 1.957-4.222 2.325-7.35l.129-1.074c.425-3.463.841-6.928 1.264-10.452l1.386-11.604L46.719 33.61c.409.225.898.248 1.328.062a35.28 35.28 0 0 1 14.238-2.975zm25.281 31.727c0 1.934-1.678 3.5-3.75 3.5-2.07 0-3.75-1.566-3.75-3.5s1.68-3.5 3.75-3.5c2.073 0 3.75 1.566 3.75 3.5zm-39.666 0c0 1.934-1.678 3.5-3.75 3.5-2.07 0-3.75-1.566-3.75-3.5s1.68-3.5 3.75-3.5c2.072 0 3.75 1.566 3.75 3.5zM27 12h70c8.285 0 15 6.716 15 15v26.745c-1.008-.263-1.959-.513-2.723-.761l-.648-.208c-2.766-.879-4.619-1.602-5.174-3.557-.66-2.33-.818-4.979-.971-7.54-.082-1.391-.168-2.829-.332-4.218-.33-2.764-.648-5.529-.967-8.295l-.771-6.712c-.098-.879-.195-1.758-.301-2.634a1.5 1.5 0 0 0-2.217-1.134l-21.26 11.771a38.328 38.328 0 0 0-14.321-2.76c.463-.75 1.014-1.44 1.532-2.156.713-.987-.623-1.668-1.406-1.72-1.22-.08-2.44.434-3.155 1.424-.197.273-.398.543-.601.813-.098-.154-.2-.307-.298-.462-.628-1.004-2.156-1.539-3.285-1.309-1.135.231-1.438 1.224-.857 2.153.396.634.81 1.257 1.243 1.865a38.166 38.166 0 0 0-7.957 2.324L25.958 18.688a1.502 1.502 0 0 0-2.216 1.134l-1.657 13.877c-.416 3.462-.831 6.924-1.257 10.384l-.13 1.09c-.567 4.819-.738 6.273-5.468 7.813-.839.272-1.896.547-3.017.837l-.213.054V27c0-8.284 6.716-15 15-15zm70 100H27c-8.284 0-15-6.715-15-15V76.561c.313.207.651.399.988.594.613.355 1.247.717 1.895 1.088 4.67 2.668 9.964 5.693 13.45 9.221 2.925 2.959 5.488 5.297 7.991 7.291a38.463 38.463 0 0 0 25.96 10.051 38.41 38.41 0 0 0 26.295-10.371c2.438-1.98 4.854-4.197 7.594-6.971 3.488-3.528 8.783-6.553 13.453-9.221.646-.371 1.281-.732 1.893-1.086l.48-.273V97c.001 8.285-6.714 15-14.999 15z"/><circle cx="44.369" cy="63.613" r="1"/><circle cx="83.816" cy="63.612" r="1"/><path d="M43.939 36.657c-3.221-.787-5.844-3.423-8.298-5.541-1.208-1.041-2.972-2.142-4.608-1.423-1.426.626-1.561 2.723-1.87 4.028-.344 1.448-.444 2.96-.55 4.44-.145 2.025-.947 4.023-1.375 6-.262 1.205 2.676.758 2.908-.319.567-2.618 1.273-5.084 1.52-7.762.08-.88.189-3.087.622-4.447 1.659.893 3.7 3.16 4.724 3.991 1.576 1.279 3.21 2.24 5.184 2.723 1.018.25 3.43-1.278 1.743-1.69zM81.242 38.348c1.975-.482 3.607-1.443 5.184-2.723 1.023-.831 3.064-3.099 4.725-3.991.432 1.36.541 3.567.621 4.447.246 2.678.953 5.144 1.52 7.762.232 1.077 3.17 1.524 2.908.319-.428-1.977-1.23-3.975-1.375-6-.105-1.48-.205-2.992-.549-4.44-.311-1.306-.445-3.402-1.871-4.028-1.637-.719-3.4.382-4.607 1.423-2.455 2.118-5.078 4.754-8.299 5.541-1.688.411.724 1.939 1.743 1.69z"/><path opacity=".4" d="M108.559 54.758c-2.695-.877-5.916-1.66-6.801-4.781-1.074-3.788-.885-8.075-1.35-11.989-.527-4.424-1.025-8.851-1.541-13.276-.168-1.453-.324-2.913-.498-4.363l-21.893 12.12a36.918 36.918 0 0 0-14.446-2.923 36.892 36.892 0 0 0-14.838 3.101L24.978 20.348c-.553 4.605-1.098 9.212-1.65 13.817-.418 3.482-.836 6.966-1.264 10.447-.701 5.724-.584 8.182-6.623 10.146-.968.314-2.159.617-3.44.95v19.651c.559.316 1.064.602 1.485.844 5.064 2.928 11.531 6.375 15.66 10.553 2.637 2.668 5.211 5.063 7.936 7.236 6.586 6 15.34 9.66 24.949 9.66 9.79 0 18.686-3.803 25.309-10.004 2.57-2.084 5.014-4.363 7.514-6.893 4.131-4.178 10.598-7.623 15.662-10.551.42-.244.926-.527 1.484-.846v-19.65c-1.281-.333-2.473-.636-3.441-.95zM44.348 67.362c-3.232 0-5.854-2.128-5.854-4.75 0-2.625 2.622-4.75 5.854-4.75 3.234 0 5.854 2.125 5.854 4.75 0 2.622-2.619 4.75-5.854 4.75zm16.625 17.423c-3.796 0-6.875-1.68-6.875-3.75 0-2.072 3.079-3.75 6.875-3.75 3.8 0 6.875 1.678 6.875 3.75 0 2.07-3.075 3.75-6.875 3.75zm22.843-17.423c-3.232 0-5.854-2.128-5.854-4.75 0-2.625 2.621-4.75 5.854-4.75 3.234 0 5.854 2.125 5.854 4.75 0 2.622-2.619 4.75-5.854 4.75z"/></g></svg>