<svg xmlns="http://www.w3.org/2000/svg" fill="#FFF" viewBox="0 0 124 124">
  <path d="M114 15.932v91.977c-15.199-1.158-37.699-2.886-39.597-3.064a5.224 5.224 0 0 0-.124-.014c-2.202-.224-3.538-.485-4.321-.691a8.002 8.002 0 0 0-15.916 0c-.784.205-2.12.468-4.323.691l-.122.014c-1.884.178-24.394 1.906-39.598 3.064V15.932c-4.419 0-8 3.402-8 7.6v84.801c0 4.196 3.581 7.6 8 7.6 0 0 40.034-3.051 40.529-3.143 8.593-.875 11.472-2.769 11.472-7.822 0 5.054 2.879 6.947 11.47 7.821.496.092 40.53 3.143 40.53 3.143 4.418 0 8-3.403 8-7.6V23.531c0-4.197-3.582-7.599-8-7.599zm-77.566 84.935z"/>
  <path d="M50.078 99.761l-.896.099c.181-.02.685-.074.896-.099zm-13.644 1.106c6.886-.532 11.824-.919 12.586-.99l.161-.018a5.138 5.138 0 0 1-.071.008c-.861.08-5.808.469-12.676 1zm13.644-1.107h.002c1.546-3.539 4.634-6.22 8.342-7.281a12.935 12.935 0 0 0-8.344 7.281z"/>
  <path d="M20.409 10.069c-3.038 0-4.695.363-5.409.626v91.817l5.849-.447 15.584-1.198c6.868-.531 11.815-.92 12.676-1l.071-.008c.244-.026.702-.076.897-.1a12.935 12.935 0 0 1 8.345-7.281c.354-.1.713-.186 1.077-.258V17.375c-7.528-2.08-27.735-7.306-39.09-7.306zm.44 91.996l-5.849.447 5.849-.447zm86.503.322zm-41.774-9.908a13.067 13.067 0 0 1 7.686 5.985 12.936 12.936 0 0 0-7.686-5.985zm8.345 7.282a12.727 12.727 0 0 0-.656-1.292c.241.416.459.848.653 1.292.267.032.951.105.951.105a609.13 609.13 0 0 0 .025.002s-.708-.076-.973-.107z"/>
  <path d="M103.591 10.069c-11.348 0-31.561 5.226-39.091 7.306V92.22a12.943 12.943 0 0 1 8.767 6.248c.24.417.463.846.656 1.292.265.031.974.107.974.107.481.044 2.206.183 4.801.386 6.03.474 16.781 1.301 27.654 2.133l1.648.126V10.696c-.714-.264-2.371-.627-5.409-.627z"/>
</svg>
