<svg xmlns="http://www.w3.org/2000/svg" viewBox="0 0 124 124">
  <path d="M73.104 7.904H50.896c-7.429 0-13.452 6.023-13.452 13.452v4.516h49.11v-4.516c.001-7.429-6.022-13.452-13.45-13.452z"/>
  <path d="M59.239 14.351a2.46 2.46 0 0 1-1.921-.921l-6.747-8.441a2.456 2.456 0 0 1 3.835-3.066l6.749 8.441a2.453 2.453 0 0 1-1.916 3.987zm5.52 0a2.455 2.455 0 0 1-1.915-3.987l6.75-8.441a2.456 2.456 0 0 1 3.449-.385 2.453 2.453 0 0 1 .385 3.451l-6.749 8.441c-.486.605-1.2.921-1.92.921zm22.267 16.445H64.454v46.103a2.454 2.454 0 1 1-4.908 0V30.796H36.973c-6.778 0-12.273 5.496-12.273 12.275v40.537C24.7 105.363 41.399 123 62 123c20.6 0 37.3-17.637 37.3-39.392V43.071c0-6.779-5.496-12.275-12.274-12.275z"/>
  <path d="M24.7 60.554H11.609a2.455 2.455 0 1 1 0-4.909H24.7a2.454 2.454 0 1 1 0 4.909zm87.692 0H99.3a2.455 2.455 0 1 1 0-4.909h13.092a2.453 2.453 0 0 1 2.454 2.454 2.453 2.453 0 0 1-2.454 2.455zM24.699 48.936c-11.478 0-15.546-7.721-15.546-29.508a2.455 2.455 0 1 1 4.91 0c0 24.6 5.651 24.6 10.637 24.6a2.455 2.455 0 1 1-.001 4.908zm74.602.001a2.455 2.455 0 0 1 0-4.91c4.985 0 10.638 0 10.638-24.601a2.455 2.455 0 1 1 4.909 0c0 21.789-4.069 29.511-15.547 29.511zm-87.693 50.29a2.457 2.457 0 0 1-2.456-2.456c0-21.788 4.069-29.512 15.546-29.512a2.455 2.455 0 0 1 0 4.91c-4.985 0-10.637 0-10.637 24.602a2.453 2.453 0 0 1-2.453 2.456zm100.786 0a2.455 2.455 0 0 1-2.455-2.456c0-24.602-5.652-24.602-10.638-24.602a2.454 2.454 0 1 1 0-4.91c11.479 0 15.547 7.724 15.547 29.512 0 1.356-1.1 2.456-2.454 2.456z"/>
</svg>
